<?xml version="1.0" encoding="UTF-8"?>
<svg id="Layer_1" data-name="Layer 1" xmlns="http://www.w3.org/2000/svg" xmlns:xlink="http://www.w3.org/1999/xlink" viewBox="0 0 1224 792">
  <defs>
    <style>
      .cls-1 {
        fill: none;
      }

      .cls-2 {
        fill: #521c17;
      }

      .cls-3 {
        fill: url(#Maroon_-_Benazir);
      }
    </style>
    <pattern id="Maroon_-_Benazir" data-name="Maroon - Benazir" x="0" y="0" width="76.94" height="125.38" patternTransform="translate(4547 3615.55) scale(1.63)" patternUnits="userSpaceOnUse" viewBox="0 0 76.94 125.38">
      <g>
        <rect class="cls-1" width="76.94" height="125.38"/>
        <path class="cls-2" d="M90.48,67.55l.02-.02-.56-.41-.29-.21h-.01c-3.86-2.75-8.24-4.21-12.71-4.21-14.14,0-25.64,14.36-25.64,32v93.37h51.28v-93.37c0-11.01-4.62-21.33-12.09-27.15ZM52.3,94.7c0-17.09,11.05-31,24.64-31,4.15,0,8.23,1.32,11.85,3.83-.14.1-.27.21-.4.32-.21.16-.41.32-.62.49-.23.18-.45.37-.67.57-.2.17-.39.34-.58.52-.21.2-.42.4-.63.61-.18.18-.37.36-.55.55-.2.21-.4.43-.59.65-.17.19-.35.39-.51.58-.19.22-.37.45-.55.68-.16.2-.32.4-.48.61-.17.24-.34.48-.51.72-.15.21-.3.42-.44.64-.16.25-.31.5-.47.75-.13.22-.27.44-.4.66-.15.26-.28.52-.42.78-.12.23-.25.45-.36.69-.13.27-.25.54-.38.81-.11.23-.22.47-.32.71-.12.28-.23.56-.34.84-.09.24-.19.48-.28.72-.1.29-.2.58-.29.88-.08.24-.16.48-.23.72-.09.3-.16.61-.24.91-.06.24-.13.48-.19.73-.07.32-.13.64-.2.96-.05.24-.1.47-.14.71-.06.34-.1.69-.15,1.03-.03.22-.07.45-.1.67-.04.39-.07.78-.1,1.17-.01.19-.04.37-.05.56-.03.58-.05,1.16-.05,1.75v8.18c-.21,0-.41-.03-.62-.03-11.68,0-21.56,9.81-24.64,23.17v-27.13ZM101.57,130.66v20.46h-23.02v-24.66c0-.57.02-1.13.05-1.7.01-.2.04-.39.05-.59.03-.36.05-.73.09-1.09.03-.23.07-.45.1-.68.05-.32.09-.65.14-.97.04-.24.1-.47.14-.7.06-.31.12-.62.19-.92.06-.24.13-.48.19-.72.08-.29.15-.58.23-.87.07-.24.16-.48.24-.72.09-.28.18-.56.28-.83.09-.24.19-.48.28-.71.1-.27.21-.54.32-.8.1-.24.21-.46.32-.7.12-.26.23-.52.36-.77.12-.23.24-.45.36-.68.13-.25.26-.5.4-.74.13-.22.27-.44.4-.66.15-.24.29-.48.44-.71.14-.22.29-.42.44-.64.16-.23.31-.46.48-.68.16-.21.32-.41.48-.61.17-.22.34-.43.52-.64.17-.2.34-.39.52-.58.18-.2.37-.41.56-.61.18-.19.37-.36.55-.54.2-.19.39-.39.6-.58.19-.17.39-.34.58-.51.21-.18.42-.36.63-.54.2-.16.41-.32.62-.47.17-.13.35-.26.52-.39,7.37,5.6,11.93,15.73,11.93,26.55ZM88.38,103.8c-.21.16-.41.32-.62.49-.23.18-.45.37-.67.57-.2.17-.39.34-.58.52-.21.2-.42.4-.63.61-.18.18-.37.36-.55.55-.2.21-.4.43-.59.65-.17.19-.35.39-.51.58-.19.22-.37.45-.55.68-.16.2-.32.4-.48.61-.17.24-.34.48-.51.72-.15.21-.3.42-.44.64-.16.25-.31.5-.47.75-.13.22-.27.44-.4.66-.15.26-.28.52-.42.78-.12.23-.25.45-.36.69-.13.27-.25.54-.38.81-.11.23-.22.47-.32.71-.12.28-.23.56-.34.84-.09.24-.19.48-.28.72-.1.29-.2.58-.29.88-.08.24-.16.48-.23.72-.08.27-.15.55-.22.82v-19.07c3.59.3,7.08,1.58,10.23,3.76-.14.1-.27.21-.4.32ZM77.55,126.45v24.66h-25.26v-20.46c0-17.09,11.05-31,24.64-31,.21,0,.41.02.62.02v26.77ZM77.55,187.07h-25.26v-34.95h25.26v34.95ZM101.57,187.07h-23.02v-34.95h23.02v34.95ZM90.48,103.51l-.84-.63c-3.39-2.42-7.19-3.84-11.09-4.15v-8.22c0-.57.02-1.13.05-1.7.01-.2.04-.39.05-.59.03-.36.05-.73.09-1.09.03-.23.07-.45.1-.68.05-.32.09-.65.14-.97.04-.24.1-.47.14-.7.06-.31.12-.62.19-.92.06-.24.13-.48.19-.72.08-.29.15-.58.23-.87.07-.24.16-.48.24-.72.09-.28.18-.56.28-.83.09-.24.19-.48.28-.71.1-.27.21-.54.32-.8.1-.24.21-.46.32-.7.12-.26.23-.52.36-.77.12-.23.24-.45.36-.68.13-.25.26-.5.4-.74.13-.22.27-.44.4-.66.15-.24.29-.48.44-.71.14-.22.29-.42.44-.64.16-.23.31-.46.48-.68.16-.21.32-.41.48-.61.17-.22.34-.43.52-.64.17-.2.34-.39.52-.58.18-.2.37-.41.56-.61.18-.19.37-.36.55-.54.2-.19.39-.39.6-.58.19-.17.39-.34.58-.51.21-.18.42-.36.63-.54.2-.16.41-.32.62-.47.17-.13.35-.26.52-.39,7.37,5.6,11.93,15.73,11.93,26.55v27.19c-1.73-7.54-5.66-14.16-11.09-18.39Z"/>
        <path class="cls-2" d="M13.55,67.55l.02-.02-.56-.41-.29-.21h-.01C8.84,64.16,4.46,62.7,0,62.7c-14.14,0-25.64,14.36-25.64,32v93.37H25.64v-93.37c0-11.01-4.62-21.33-12.09-27.15ZM-24.64,94.7C-24.64,77.61-13.59,63.7,0,63.7c4.15,0,8.23,1.32,11.85,3.83-.14.1-.27.21-.4.32-.21.16-.41.32-.62.49-.23.18-.45.37-.67.57-.2.17-.39.34-.58.52-.21.2-.42.4-.63.61-.18.18-.37.36-.55.55-.2.21-.4.43-.59.65-.17.19-.35.39-.51.58-.19.22-.37.45-.55.68-.16.2-.32.4-.48.61-.17.24-.34.48-.51.72-.15.21-.3.42-.44.64-.16.25-.31.5-.47.75-.13.22-.27.44-.4.66-.15.26-.28.52-.42.78-.12.23-.25.45-.36.69-.13.27-.25.54-.38.81-.11.23-.22.47-.32.71-.12.28-.23.56-.34.84-.09.24-.19.48-.28.72-.1.29-.2.58-.29.88-.08.24-.16.48-.23.72-.09.3-.16.61-.24.91-.06.24-.13.48-.19.73-.07.32-.13.64-.2.96-.05.24-.1.47-.14.71-.06.34-.1.69-.15,1.03-.03.22-.07.45-.1.67-.04.39-.07.78-.1,1.17-.01.19-.04.37-.05.56-.03.58-.05,1.16-.05,1.75v8.18c-.21,0-.41-.03-.62-.03-11.68,0-21.56,9.81-24.64,23.17v-27.13ZM24.64,130.66v20.46H1.62v-24.66c0-.57.02-1.13.05-1.7.01-.2.04-.39.05-.59.03-.36.05-.73.09-1.09.03-.23.07-.45.1-.68.05-.32.09-.65.14-.97.04-.24.1-.47.14-.7.06-.31.12-.62.19-.92.06-.24.13-.48.19-.72.08-.29.15-.58.23-.87.07-.24.16-.48.24-.72.09-.28.18-.56.28-.83.09-.24.19-.48.28-.71.1-.27.21-.54.32-.8.1-.24.21-.46.32-.7.12-.26.23-.52.36-.77.12-.23.24-.45.36-.68.13-.25.26-.5.4-.74.13-.22.27-.44.4-.66.15-.24.29-.48.44-.71.14-.22.29-.42.44-.64.16-.23.31-.46.48-.68.16-.21.32-.41.48-.61.17-.22.34-.43.52-.64.17-.2.34-.39.52-.58.18-.2.37-.41.56-.61.18-.19.37-.36.55-.54.2-.19.39-.39.6-.58.19-.17.39-.34.58-.51.21-.18.42-.36.63-.54.2-.16.41-.32.62-.47.17-.13.35-.26.52-.39,7.37,5.6,11.93,15.73,11.93,26.55ZM11.45,103.8c-.21.16-.41.32-.62.49-.23.18-.45.37-.67.57-.2.17-.39.34-.58.52-.21.2-.42.4-.63.61-.18.18-.37.36-.55.55-.2.21-.4.43-.59.65-.17.19-.35.39-.51.58-.19.22-.37.45-.55.68-.16.2-.32.4-.48.61-.17.24-.34.48-.51.72-.15.21-.3.42-.44.64-.16.25-.31.5-.47.75-.13.22-.27.44-.4.66-.15.26-.28.52-.42.78-.12.23-.25.45-.36.69-.13.27-.25.54-.38.81-.11.23-.22.47-.32.71-.12.28-.23.56-.34.84-.09.24-.19.48-.28.72-.1.29-.2.58-.29.88-.08.24-.16.48-.23.72-.08.27-.15.55-.22.82v-19.07c3.59.3,7.08,1.58,10.23,3.76-.14.1-.27.21-.4.32ZM.62,126.45v24.66h-25.26v-20.46C-24.64,113.56-13.59,99.65,0,99.65c.21,0,.41.02.62.02v26.77ZM.62,187.07h-25.26v-34.95H.62v34.95ZM24.64,187.07H1.62v-34.95h23.02v34.95ZM13.55,103.51l-.84-.63c-3.39-2.42-7.19-3.84-11.09-4.15v-8.22c0-.57.02-1.13.05-1.7.01-.2.04-.39.05-.59.03-.36.05-.73.09-1.09.03-.23.07-.45.1-.68.05-.32.09-.65.14-.97.04-.24.1-.47.14-.7.06-.31.12-.62.19-.92.06-.24.13-.48.19-.72.08-.29.15-.58.23-.87.07-.24.16-.48.24-.72.09-.28.18-.56.28-.83.09-.24.19-.48.28-.71.1-.27.21-.54.32-.8.1-.24.21-.46.32-.7.12-.26.23-.52.36-.77.12-.23.24-.45.36-.68.13-.25.26-.5.4-.74.13-.22.27-.44.4-.66.15-.24.29-.48.44-.71.14-.22.29-.42.44-.64.16-.23.31-.46.48-.68.16-.21.32-.41.48-.61.17-.22.34-.43.52-.64.17-.2.34-.39.52-.58.18-.2.37-.41.56-.61.18-.19.37-.36.55-.54.2-.19.39-.39.6-.58.19-.17.39-.34.58-.51.21-.18.42-.36.63-.54.2-.16.41-.32.62-.47.17-.13.35-.26.52-.39,7.37,5.6,11.93,15.73,11.93,26.55v27.19c-1.73-7.54-5.66-14.16-11.09-18.39Z"/>
        <path class="cls-2" d="M90.48-57.83l.02-.02-.56-.41-.29-.21h-.01c-3.86-2.75-8.24-4.21-12.71-4.21-14.14,0-25.64,14.36-25.64,32V62.69h51.28V-30.68c0-11.01-4.62-21.33-12.09-27.15ZM52.3-30.68c0-17.09,11.05-31,24.64-31,4.15,0,8.23,1.32,11.85,3.83-.14.1-.27.21-.4.32-.21.16-.41.32-.62.49-.23.18-.45.37-.67.57-.2.17-.39.34-.58.52-.21.2-.42.4-.63.61-.18.18-.37.36-.55.55-.2.21-.4.43-.59.65-.17.19-.35.39-.51.58-.19.22-.37.45-.55.68-.16.2-.32.4-.48.61-.17.24-.34.48-.51.72-.15.21-.3.42-.44.64-.16.25-.31.5-.47.75-.13.22-.27.44-.4.66-.15.26-.28.52-.42.78-.12.23-.25.45-.36.69-.13.27-.25.54-.38.81-.11.23-.22.47-.32.71-.12.28-.23.56-.34.84-.09.24-.19.48-.28.72-.1.29-.2.58-.29.88-.08.24-.16.48-.23.72-.09.3-.16.61-.24.91-.06.24-.13.48-.19.73-.07.32-.13.64-.2.96-.05.24-.1.47-.14.71-.06.34-.1.69-.15,1.03-.03.22-.07.45-.1.67-.04.39-.07.78-.1,1.17-.01.19-.04.37-.05.56-.03.58-.05,1.16-.05,1.75v8.18c-.21,0-.41-.03-.62-.03-11.68,0-21.56,9.81-24.64,23.17v-27.13ZM101.57,5.27v20.46h-23.02V1.07c0-.57.02-1.13.05-1.7.01-.2.04-.39.05-.59.03-.36.05-.73.09-1.09.03-.23.07-.45.1-.68.05-.32.09-.65.14-.97.04-.24.1-.47.14-.7.06-.31.12-.62.19-.92.06-.24.13-.48.19-.72.08-.29.15-.58.23-.87.07-.24.16-.48.24-.72.09-.28.18-.56.28-.83.09-.24.19-.48.28-.71.1-.27.21-.54.32-.8.1-.24.21-.46.32-.7.12-.26.23-.52.36-.77.12-.23.24-.45.36-.68.13-.25.26-.5.4-.74.13-.22.27-.44.4-.66.15-.24.29-.48.44-.71.14-.22.29-.42.44-.64.16-.23.31-.46.48-.68.16-.21.32-.41.48-.61.17-.22.34-.43.52-.64.17-.2.34-.39.52-.58.18-.2.37-.41.56-.61.18-.19.37-.36.55-.54.2-.19.39-.39.6-.58.19-.17.39-.34.58-.51.21-.18.42-.36.63-.54.2-.16.41-.32.62-.47.17-.13.35-.26.52-.39,7.37,5.6,11.93,15.73,11.93,26.55ZM88.38-21.59c-.21.16-.41.32-.62.49-.23.18-.45.37-.67.57-.2.17-.39.34-.58.52-.21.2-.42.4-.63.61-.18.18-.37.36-.55.55-.2.21-.4.43-.59.65-.17.19-.35.39-.51.58-.19.22-.37.45-.55.68-.16.2-.32.4-.48.61-.17.24-.34.48-.51.72-.15.21-.3.42-.44.64-.16.25-.31.5-.47.75-.13.22-.27.44-.4.66-.15.26-.28.52-.42.78-.12.23-.25.45-.36.69-.13.27-.25.54-.38.81-.11.23-.22.47-.32.71-.12.28-.23.56-.34.84-.09.24-.19.48-.28.72-.1.29-.2.58-.29.88-.08.24-.16.48-.23.72-.08.27-.15.55-.22.82v-19.07c3.59.3,7.08,1.58,10.23,3.76-.14.1-.27.21-.4.32ZM77.55,1.07v24.66h-25.26V5.27c0-17.09,11.05-31,24.64-31,.21,0,.41.02.62.02V1.07ZM77.55,61.69h-25.26V26.73h25.26v34.95ZM101.57,61.69h-23.02V26.73h23.02v34.95ZM90.48-21.88l-.84-.63c-3.39-2.42-7.19-3.84-11.09-4.15v-8.22c0-.57.02-1.13.05-1.7.01-.2.04-.39.05-.59.03-.36.05-.73.09-1.09.03-.23.07-.45.1-.68.05-.32.09-.65.14-.97.04-.24.1-.47.14-.7.06-.31.12-.62.19-.92.06-.24.13-.48.19-.72.08-.29.15-.58.23-.87.07-.24.16-.48.24-.72.09-.28.18-.56.28-.83.09-.24.19-.48.28-.71.1-.27.21-.54.32-.8.1-.24.21-.46.32-.7.12-.26.23-.52.36-.77.12-.23.24-.45.36-.68.13-.25.26-.5.4-.74.13-.22.27-.44.4-.66.15-.24.29-.48.44-.71.14-.22.29-.42.44-.64.16-.23.31-.46.48-.68.16-.21.32-.41.48-.61.17-.22.34-.43.52-.64.17-.2.34-.39.52-.58.18-.2.37-.41.56-.61.18-.19.37-.36.55-.54.2-.19.39-.39.6-.58.19-.17.39-.34.58-.51.21-.18.42-.36.63-.54.2-.16.41-.32.62-.47.17-.13.35-.26.52-.39,7.37,5.6,11.93,15.73,11.93,26.55V-3.49c-1.73-7.54-5.66-14.16-11.09-18.39Z"/>
        <path class="cls-2" d="M52.01,4.86l.02-.02-.56-.41-.29-.21h-.01C47.31,1.47,42.93,0,38.47,0,24.33,0,12.83,14.36,12.83,32.01v93.37h51.28V32.01c0-11.01-4.62-21.33-12.09-27.15ZM13.83,32.01C13.83,14.91,24.88,1.01,38.47,1.01c4.15,0,8.23,1.32,11.85,3.83-.14.1-.27.21-.4.32-.21.16-.41.32-.62.49-.23.18-.45.37-.67.57-.2.17-.39.34-.58.52-.21.2-.42.4-.63.61-.18.18-.37.36-.55.55-.2.21-.4.43-.59.65-.17.19-.35.39-.51.58-.19.22-.37.45-.55.68-.16.2-.32.4-.48.61-.17.24-.34.48-.51.72-.15.21-.3.42-.44.64-.16.25-.31.5-.47.75-.13.22-.27.44-.4.66-.15.26-.28.52-.42.78-.12.23-.25.45-.36.69-.13.27-.25.54-.38.81-.11.23-.22.47-.32.71-.12.28-.23.56-.34.84-.09.24-.19.48-.28.72-.1.29-.2.58-.29.88-.08.24-.16.48-.23.72-.09.3-.16.61-.24.91-.06.24-.13.48-.19.73-.07.32-.13.64-.2.96-.05.24-.1.47-.14.71-.06.34-.1.69-.15,1.03-.03.22-.07.45-.1.67-.04.39-.07.78-.1,1.17-.01.19-.04.37-.05.56-.03.58-.05,1.16-.05,1.75v8.18c-.21,0-.41-.03-.62-.03-11.68,0-21.56,9.81-24.64,23.17v-27.13ZM63.11,67.96v20.46h-23.02v-24.66c0-.57.02-1.13.05-1.7.01-.2.04-.39.05-.59.03-.36.05-.73.09-1.09.03-.23.07-.45.1-.68.05-.32.09-.65.14-.97.04-.24.1-.47.14-.7.06-.31.12-.62.19-.92.06-.24.13-.48.19-.72.08-.29.15-.58.23-.87.07-.24.16-.48.24-.72.09-.28.18-.56.28-.83.09-.24.19-.48.28-.71.1-.27.21-.54.32-.8.1-.24.21-.46.32-.7.12-.26.23-.52.36-.77.12-.23.24-.45.36-.68.13-.25.26-.5.4-.74.13-.22.27-.44.4-.66.15-.24.29-.48.44-.71.14-.22.29-.42.44-.64.16-.23.31-.46.48-.68.16-.21.32-.41.48-.61.17-.22.34-.43.52-.64.17-.2.34-.39.52-.58.18-.2.37-.41.56-.61.18-.19.37-.36.55-.54.2-.19.39-.39.6-.58.19-.17.39-.34.58-.51.21-.18.42-.36.63-.54.2-.16.41-.32.62-.47.17-.13.35-.26.52-.39,7.37,5.6,11.93,15.73,11.93,26.55ZM49.91,41.11c-.21.16-.41.32-.62.49-.23.18-.45.37-.67.57-.2.17-.39.34-.58.52-.21.2-.42.4-.63.61-.18.18-.37.36-.55.55-.2.21-.4.43-.59.65-.17.19-.35.39-.51.58-.19.22-.37.45-.55.68-.16.2-.32.4-.48.61-.17.24-.34.48-.51.72-.15.21-.3.42-.44.64-.16.25-.31.5-.47.75-.13.22-.27.44-.4.66-.15.26-.28.52-.42.78-.12.23-.25.45-.36.69-.13.27-.25.54-.38.81-.11.23-.22.47-.32.71-.12.28-.23.56-.34.84-.09.24-.19.48-.28.72-.1.29-.2.58-.29.88-.08.24-.16.48-.23.72-.08.27-.15.55-.22.82v-19.07c3.59.3,7.08,1.58,10.23,3.76-.14.1-.27.21-.4.32ZM39.09,63.76v24.66H13.83v-20.46c0-17.09,11.05-31,24.64-31,.21,0,.41.02.62.02v26.77ZM39.09,124.38H13.83v-34.95h25.26v34.95ZM63.11,124.38h-23.02v-34.95h23.02v34.95ZM52.01,40.81l-.84-.63c-3.39-2.42-7.19-3.84-11.09-4.15v-8.22c0-.57.02-1.13.05-1.7.01-.2.04-.39.05-.59.03-.36.05-.73.09-1.09.03-.23.07-.45.1-.68.05-.32.09-.65.14-.97.04-.24.1-.47.14-.7.06-.31.12-.62.19-.92.06-.24.13-.48.19-.72.08-.29.15-.58.23-.87.07-.24.16-.48.24-.72.09-.28.18-.56.28-.83.09-.24.19-.48.28-.71.1-.27.21-.54.32-.8.1-.24.21-.46.32-.7.12-.26.23-.52.36-.77.12-.23.24-.45.36-.68.13-.25.26-.5.4-.74.13-.22.27-.44.4-.66.15-.24.29-.48.44-.71.14-.22.29-.42.44-.64.16-.23.31-.46.48-.68.16-.21.32-.41.48-.61.17-.22.34-.43.52-.64.17-.2.34-.39.52-.58.18-.2.37-.41.56-.61.18-.19.37-.36.55-.54.2-.19.39-.39.6-.58.19-.17.39-.34.58-.51.21-.18.42-.36.63-.54.2-.16.41-.32.62-.47.17-.13.35-.26.52-.39,7.37,5.6,11.93,15.73,11.93,26.55v27.19c-1.73-7.54-5.66-14.16-11.09-18.39Z"/>
        <path class="cls-2" d="M13.55-57.83l.02-.02-.56-.41-.29-.21h-.01C8.84-61.22,4.46-62.69,0-62.69c-14.14,0-25.64,14.36-25.64,32V62.69H25.64V-30.68c0-11.01-4.62-21.33-12.09-27.15ZM-24.64-30.68C-24.64-47.78-13.59-61.69,0-61.69c4.15,0,8.23,1.32,11.85,3.83-.14.1-.27.21-.4.32-.21.16-.41.32-.62.49-.23.18-.45.37-.67.57-.2.17-.39.34-.58.52-.21.2-.42.4-.63.61-.18.18-.37.36-.55.55-.2.21-.4.43-.59.65-.17.19-.35.39-.51.58-.19.22-.37.45-.55.68-.16.2-.32.4-.48.61-.17.24-.34.48-.51.72-.15.21-.3.42-.44.64-.16.25-.31.5-.47.75-.13.22-.27.44-.4.66-.15.26-.28.52-.42.78-.12.23-.25.45-.36.69-.13.27-.25.54-.38.81-.11.23-.22.47-.32.71-.12.28-.23.56-.34.84-.09.24-.19.48-.28.72-.1.29-.2.58-.29.88-.08.24-.16.48-.23.72-.09.3-.16.61-.24.91-.06.24-.13.48-.19.73-.07.32-.13.64-.2.96-.05.24-.1.47-.14.71-.06.34-.1.69-.15,1.03-.03.22-.07.45-.1.67-.04.39-.07.78-.1,1.17-.01.19-.04.37-.05.56-.03.58-.05,1.16-.05,1.75v8.18c-.21,0-.41-.03-.62-.03-11.68,0-21.56,9.81-24.64,23.17v-27.13ZM24.64,5.27v20.46H1.62V1.07c0-.57.02-1.13.05-1.7.01-.2.04-.39.05-.59.03-.36.05-.73.09-1.09.03-.23.07-.45.1-.68.05-.32.09-.65.14-.97.04-.24.1-.47.14-.7.06-.31.12-.62.19-.92.06-.24.13-.48.19-.72.08-.29.15-.58.23-.87.07-.24.16-.48.24-.72.09-.28.18-.56.28-.83.09-.24.19-.48.28-.71.1-.27.21-.54.32-.8.1-.24.21-.46.32-.7.12-.26.23-.52.36-.77.12-.23.24-.45.36-.68.13-.25.26-.5.4-.74.13-.22.27-.44.4-.66.15-.24.29-.48.44-.71.14-.22.29-.42.44-.64.16-.23.31-.46.48-.68.16-.21.32-.41.48-.61.17-.22.34-.43.52-.64.17-.2.34-.39.52-.58.18-.2.37-.41.56-.61.18-.19.37-.36.55-.54.2-.19.39-.39.6-.58.19-.17.39-.34.58-.51.21-.18.42-.36.63-.54.2-.16.41-.32.62-.47.17-.13.35-.26.52-.39,7.37,5.6,11.93,15.73,11.93,26.55ZM11.45-21.59c-.21.16-.41.32-.62.49-.23.18-.45.37-.67.57-.2.17-.39.34-.58.52-.21.2-.42.4-.63.61-.18.18-.37.36-.55.55-.2.21-.4.43-.59.65-.17.19-.35.39-.51.58-.19.22-.37.45-.55.68-.16.2-.32.4-.48.61-.17.24-.34.48-.51.72-.15.21-.3.42-.44.64-.16.25-.31.5-.47.75-.13.22-.27.44-.4.66-.15.26-.28.52-.42.78-.12.23-.25.45-.36.69-.13.27-.25.54-.38.81-.11.23-.22.47-.32.71-.12.28-.23.56-.34.84-.09.24-.19.48-.28.72-.1.29-.2.58-.29.88-.08.24-.16.48-.23.72-.08.27-.15.55-.22.82v-19.07c3.59.3,7.08,1.58,10.23,3.76-.14.1-.27.21-.4.32ZM.62,1.07v24.66h-25.26V5.27C-24.64-11.82-13.59-25.73,0-25.73c.21,0,.41.02.62.02V1.07ZM.62,61.69h-25.26V26.73H.62v34.95ZM24.64,61.69H1.62V26.73h23.02v34.95ZM13.55-21.88l-.84-.63c-3.39-2.42-7.19-3.84-11.09-4.15v-8.22c0-.57.02-1.13.05-1.7.01-.2.04-.39.05-.59.03-.36.05-.73.09-1.09.03-.23.07-.45.1-.68.05-.32.09-.65.14-.97.04-.24.1-.47.14-.7.06-.31.12-.62.19-.92.06-.24.13-.48.19-.72.08-.29.15-.58.23-.87.07-.24.16-.48.24-.72.09-.28.18-.56.28-.83.09-.24.19-.48.28-.71.1-.27.21-.54.32-.8.1-.24.21-.46.32-.7.12-.26.23-.52.36-.77.12-.23.24-.45.36-.68.13-.25.26-.5.4-.74.13-.22.27-.44.4-.66.15-.24.29-.48.44-.71.14-.22.29-.42.44-.64.16-.23.31-.46.48-.68.16-.21.32-.41.48-.61.17-.22.34-.43.52-.64.17-.2.34-.39.52-.58.18-.2.37-.41.56-.61.18-.19.37-.36.55-.54.2-.19.39-.39.6-.58.19-.17.39-.34.58-.51.21-.18.42-.36.63-.54.2-.16.41-.32.62-.47.17-.13.35-.26.52-.39,7.37,5.6,11.93,15.73,11.93,26.55V-3.49c-1.73-7.54-5.66-14.16-11.09-18.39Z"/>
      </g>
    </pattern>
  </defs>
  <rect class="cls-3" width="1224" height="792"/>
</svg>