<?xml version="1.0" encoding="UTF-8"?>
<svg id="Layer_1" data-name="Layer 1" xmlns="http://www.w3.org/2000/svg" viewBox="0 0 499.03 204.05">
  <defs>
    <style>
      .cls-1 {
        fill: #bd382e;
      }
    </style>
  </defs>
  <g>
    <path class="cls-1" d="M104.5,132.3c4.81,0,8.45-.87,10.92-2.63,2.47-1.75,3.71-4.31,3.71-7.67,0-2.3-.7-4.23-2.11-5.79-1.41-1.56-3.45-2.67-6.13-3.32,4.5-1.13,6.75-3.84,6.75-8.14,0-3.05-1.14-5.36-3.42-6.9-2.28-1.54-5.66-2.32-10.12-2.32h-16.48v14.85c-.04.94-.35,1.87-1.19,2.29-.23.12-.97.41-.97.41,0,0,.73.28.97.39.84.42,1.15,1.34,1.19,2.29v16.54h16.89ZM91,98.46h12.82c3.54,0,6.14.51,7.8,1.54,1.66,1.03,2.5,2.66,2.5,4.89,0,4.46-3.24,6.69-9.73,6.69h-13.39v-13.13ZM91,114.53h13.75c3.54,0,6.22.64,8.06,1.9,1.84,1.27,2.75,3.12,2.75,5.56s-.91,4.36-2.73,5.56c-1.82,1.2-4.67,1.8-8.55,1.8h-13.29v-14.83Z"/>
    <polygon class="cls-1" points="175.82 100.32 202.45 132.3 205.79 132.3 205.79 95.53 202.45 95.53 202.45 127.51 175.82 95.53 172.42 95.53 172.42 132.3 175.82 132.3 175.82 100.32"/>
    <path class="cls-1" d="M251.62,132.3h3.81l-17.87-36.77h-3.55l-17.92,36.77h3.71l5.3-11.02h21.22l5.3,11.02ZM226.39,118.44l9.32-19.31,9.32,19.31h-18.64Z"/>
    <polygon class="cls-1" points="294.88 129.26 266.71 129.26 294.32 98.26 294.32 95.53 262.8 95.53 262.8 98.57 289.99 98.57 262.34 129.57 262.34 132.3 294.16 132.3 294.88 129.26"/>
    <rect class="cls-1" x="305.64" y="95.53" width="3.45" height="36.77"/>
    <polygon class="cls-1" points="363.42 105.93 366.1 105.93 368.99 95.53 365.54 95.53 363.42 105.93"/>
    <path class="cls-1" d="M408.49,115.74c-1.99-1.7-5.13-2.84-9.42-3.42l-6.59-.93c-3.54-.51-6.06-1.29-7.57-2.32s-2.27-2.54-2.27-4.53c0-2.23,1.07-3.94,3.22-5.12,2.15-1.18,5.18-1.78,9.09-1.78,3.5,0,6.21.52,8.14,1.57,1.92,1.05,3.36,2.79,4.33,5.23l3.24-.62c-1.06-3.26-2.82-5.61-5.28-7.06-2.46-1.44-5.93-2.16-10.43-2.16-4.91,0-8.76.87-11.56,2.63-2.8,1.75-4.2,4.22-4.2,7.42,0,2.88,1,5.11,3.01,6.67s5.35,2.67,10.02,3.32l5.87.82c3.54.45,6.07,1.24,7.6,2.39,1.53,1.15,2.29,2.77,2.29,4.87,0,2.44-1.04,4.29-3.12,5.56s-5.12,1.91-9.14,1.91c-8.24,0-12.91-2.58-14.01-7.73h-3.5c.96,7.18,6.8,10.76,17.51,10.76,5.05,0,8.94-.91,11.66-2.73,2.73-1.82,4.09-4.41,4.09-7.78,0-2.95-1-5.28-2.99-6.98Z"/>
    <path class="cls-1" d="M34.95,162.47c-2.35-1.89-5.78-2.83-10.27-2.83H7.57v18.11c-.06.91-.38,1.78-1.18,2.19-.24.12-.97.41-.97.41,0,0,.73.28.97.39.81.4,1.12,1.28,1.18,2.18v13.48h3.45v-14.57h13.03c9.61,0,14.42-3.72,14.42-11.17,0-3.57-1.18-6.3-3.53-8.19ZM24.21,178.85h-13.18v-16.17h13.34c7,0,10.51,2.64,10.51,7.93s-3.55,8.24-10.66,8.24Z"/>
    <polygon class="cls-1" points="80.29 175.76 53.87 175.76 53.87 159.64 50.42 159.64 50.42 196.41 53.87 196.41 53.87 178.95 80.29 178.95 80.29 196.41 83.69 196.41 83.69 159.64 80.29 159.64 80.29 175.76"/>
    <path class="cls-1" d="M126.87,161.08c-3.01-1.58-6.55-2.37-10.64-2.37s-7.58.79-10.58,2.37c-3,1.58-5.33,3.81-6.98,6.69-1.65,2.88-2.47,6.3-2.47,10.25s.82,7.36,2.47,10.25c1.65,2.88,3.97,5.12,6.98,6.7,3,1.58,6.53,2.37,10.58,2.37s7.63-.79,10.64-2.37c3-1.58,5.33-3.81,6.98-6.7,1.65-2.88,2.47-6.3,2.47-10.25s-.82-7.37-2.47-10.25c-1.65-2.88-3.98-5.11-6.98-6.69ZM130.73,186.73c-1.32,2.44-3.22,4.3-5.69,5.59-2.47,1.29-5.41,1.93-8.81,1.93s-6.33-.64-8.81-1.93c-2.47-1.29-4.37-3.15-5.69-5.59-1.32-2.44-1.98-5.34-1.98-8.7s.67-6.31,2.01-8.73c1.34-2.42,3.24-4.27,5.69-5.56s5.38-1.93,8.78-1.93,6.38.64,8.83,1.93c2.45,1.29,4.34,3.14,5.66,5.56,1.32,2.42,1.98,5.33,1.98,8.73s-.66,6.26-1.98,8.7Z"/>
    <polygon class="cls-1" points="142.5 162.68 158.21 162.68 158.21 196.41 161.66 196.41 161.66 162.68 177.36 162.68 177.36 159.64 142.5 159.64 142.5 162.68"/>
    <path class="cls-1" d="M214.21,161.08c-3.01-1.58-6.55-2.37-10.64-2.37s-7.58.79-10.58,2.37c-3,1.58-5.33,3.81-6.98,6.69-1.65,2.88-2.47,6.3-2.47,10.25s.82,7.36,2.47,10.25c1.65,2.88,3.97,5.12,6.98,6.7,3,1.58,6.53,2.37,10.58,2.37s7.63-.79,10.64-2.37c3-1.58,5.33-3.81,6.98-6.7,1.65-2.88,2.47-6.3,2.47-10.25s-.82-7.37-2.47-10.25c-1.65-2.88-3.98-5.11-6.98-6.69ZM218.07,186.73c-1.32,2.44-3.22,4.3-5.69,5.59-2.47,1.29-5.41,1.93-8.81,1.93s-6.33-.64-8.81-1.93c-2.47-1.29-4.37-3.15-5.69-5.59-1.32-2.44-1.98-5.34-1.98-8.7s.67-6.31,2.01-8.73c1.34-2.42,3.24-4.27,5.69-5.56,2.46-1.29,5.38-1.93,8.78-1.93s6.38.64,8.83,1.93c2.45,1.29,4.34,3.14,5.66,5.56,1.32,2.42,1.98,5.33,1.98,8.73s-.66,6.26-1.98,8.7Z"/>
    <path class="cls-1" d="M254.92,181.16h12.82v9.73c-1.68,1.03-3.64,1.85-5.87,2.45-2.23.6-4.65.9-7.26.9-5.19,0-9.29-1.38-12.31-4.15-3.02-2.76-4.53-6.75-4.53-11.97,0-3.36.64-6.26,1.91-8.7,1.27-2.44,3.11-4.32,5.51-5.64s5.29-1.98,8.65-1.98,5.98.65,8.16,1.96c2.18,1.3,3.75,3.26,4.71,5.87l3.35-.67c-1.1-3.29-3.02-5.83-5.77-7.59-2.75-1.77-6.2-2.65-10.35-2.65s-7.46.8-10.43,2.39c-2.97,1.6-5.26,3.85-6.88,6.75-1.61,2.9-2.42,6.34-2.42,10.33s.84,7.61,2.52,10.45c1.68,2.85,4.05,5.01,7.11,6.49,3.06,1.48,6.63,2.21,10.71,2.21,3.06,0,6.03-.44,8.94-1.31,2.9-.88,5.4-2.12,7.49-3.73v-14.11h-16.07v2.99Z"/>
    <path class="cls-1" d="M312.34,176.45c1.3-1.67,1.96-3.77,1.96-6.31,0-3.4-1.13-6-3.4-7.8-2.27-1.8-5.68-2.7-10.25-2.7h-16.89v16.81c-.04.94-.36,1.86-1.19,2.28-.23.12-.97.41-.97.41,0,0,.73.28.97.39.84.41,1.15,1.34,1.19,2.28v14.59h3.4v-15.76h14.55c.43,0,.83-.03,1.21-.1l9.12,15.86h3.91l-9.58-16.48c2.68-.65,4.67-1.81,5.97-3.48ZM300.24,177.61h-13.08v-14.93h13.23c3.57,0,6.18.62,7.83,1.85,1.65,1.24,2.47,3.09,2.47,5.56,0,5.01-3.48,7.52-10.45,7.52Z"/>
    <path class="cls-1" d="M340.66,159.64l-17.92,36.77h3.71l5.3-11.02h21.22l5.3,11.02h3.81l-17.87-36.77h-3.55ZM333.04,182.55l9.32-19.31,9.32,19.31h-18.64Z"/>
    <path class="cls-1" d="M399.76,162.47c-2.35-1.89-5.78-2.83-10.27-2.83h-17.1v17.99c-.04.95-.35,1.88-1.19,2.3-.24.12-.97.41-.97.41,0,0,.73.28.97.39.84.42,1.15,1.35,1.19,2.3v13.37h3.45v-14.57h13.03c9.61,0,14.42-3.72,14.42-11.17,0-3.57-1.18-6.3-3.53-8.19ZM389.02,178.85h-13.18v-16.17h13.34c7,0,10.51,2.64,10.51,7.93s-3.55,8.24-10.66,8.24Z"/>
    <polygon class="cls-1" points="445.1 175.76 418.68 175.76 418.68 159.64 415.23 159.64 415.23 196.41 418.68 196.41 418.68 178.95 445.1 178.95 445.1 196.41 448.5 196.41 448.5 159.64 445.1 159.64 445.1 175.76"/>
    <polygon class="cls-1" points="489.6 159.64 476.31 177.76 463.02 159.64 458.8 159.64 474.51 180.75 474.51 196.41 477.96 196.41 477.96 180.7 493.61 159.64 489.6 159.64"/>
    <path class="cls-1" d="M131.27,116.19h0v16.1h28.63l.67-3.04h-25.85v-14.42h23.84v-3.04h-23.84v-13.23h25.08v-3.04h-28.53v14.41h0c.04,1.08-.23,2.24-1.19,2.72-.24.12-.97.41-.97.41,0,0,.73.28.97.39.97.48,1.23,1.64,1.19,2.72Z"/>
    <path class="cls-1" d="M323.51,117.69v14.61h3.4v-15.76h14.55c.43,0,.83-.03,1.21-.1l9.12,15.86h3.91l-9.58-16.48c2.68-.65,4.67-1.81,5.97-3.48,1.3-1.67,1.96-3.77,1.96-6.31,0-3.4-1.13-6-3.4-7.8-2.27-1.8-5.68-2.7-10.25-2.7h-16.89v16.83c-.05.93-.36,1.85-1.19,2.26-.23.12-.97.41-.97.41,0,0,.73.28.97.39.83.41,1.14,1.33,1.19,2.26ZM326.91,98.57h13.23c3.57,0,6.18.62,7.83,1.85s2.47,3.09,2.47,5.56c0,5.01-3.48,7.52-10.45,7.52h-13.08v-14.93Z"/>
  </g>
  <path class="cls-1" d="M274.26,42.45l-1-1.37-.29-.35-.02.03c-2.01-2.29-4.81-4.09-8.01-5.16,3.2-1.06,6.01-2.87,8.01-5.16l.04.06,1.14-1.56.12-.2h0c1.39-2.17,2.12-4.59,2.12-7.02,0-8.27-8.19-14.99-18.27-14.99h-32.22v25.77c-.03.89-.29,2.05-1.28,2.55-.27.14-1.15.48-1.16.49l-.78.31.78.3c.25.09.93.36,1.16.47.99.49,1.24,1.66,1.28,2.54v25.36h32.22c10.07,0,18.27-6.72,18.27-14.99,0-2.43-.73-4.86-2.12-7.01l.02-.03ZM271.57,42.68c-.09.11-.19.23-.29.34-.07.08-.13.15-.2.22l-.08.09c-.09.1-.19.2-.28.3-.09.09-.19.18-.28.27-.11.1-.22.2-.32.3l-.3.25c-.11.1-.23.19-.34.28-.1.08-.21.16-.31.23-.12.09-.24.17-.36.26-.11.07-.21.15-.32.21-.13.08-.25.16-.38.24-.11.07-.22.13-.33.19-.13.08-.27.15-.4.22-.11.06-.22.12-.34.17-.14.07-.27.13-.42.2-.11.05-.23.1-.34.15-.14.06-.29.12-.47.19-.1.04-.21.08-.31.12-.14.05-.28.09-.45.15l-.36.11c-.15.04-.31.08-.47.13l-.09.02c-.09.02-.17.05-.26.07-.14.03-.28.06-.49.1l-.11.02c-.08.02-.16.03-.24.05-.14.02-.29.04-.44.06l-.42.06c-.18.02-.36.03-.58.05l-.29.02c-.29.02-.59.03-.88.03h-32.57v-11.08h30.27c5.43,0,10.62,2.21,13.63,5.79-.05.06-.11.13-.16.2ZM227.83,49.97h32.57c.33,0,.66-.01.98-.03l.36-.03c.2-.02.41-.03.61-.05.08-.01.17-.02.25-.03l.19-.03c.17-.02.34-.05.51-.08l.44-.09c.17-.03.33-.07.5-.1.11-.03.22-.05.4-.1.18-.05.35-.09.53-.14.11-.03.22-.07.4-.12.17-.05.34-.11.51-.17.13-.05.26-.1.39-.15.17-.06.33-.13.49-.2.13-.05.26-.11.39-.17.16-.07.32-.15.47-.22.13-.06.25-.13.37-.19.15-.08.31-.16.45-.25.12-.07.25-.14.37-.21.15-.09.29-.18.43-.27.12-.08.24-.15.36-.24.14-.1.28-.2.46-.33.1-.07.2-.15.29-.22.12-.09.24-.19.36-.29l-.21-.25.28.19c.1-.08.2-.16.29-.25.12-.11.24-.22.38-.35l.08-.08c.07-.07.15-.14.22-.21.11-.11.22-.22.36-.38l.08-.08c.07-.07.14-.15.2-.22.1-.11.19-.22.29-.34l.05-.05c.96,1.65,1.46,3.46,1.46,5.27,0,7.06-7.32,12.8-16.32,12.8h-30.27v-12.32ZM272.06,28.62l-.02.03h-.01s.03-.03.03-.03ZM258.1,34.5h-30.27v-11.08h32.57c.3,0,.59,0,.88.03l.36.03c.17.01.34.03.51.05l.42.06c.15.02.29.04.44.06.08.01.16.03.24.05l.14.03c.15.03.31.06.46.09.09.02.17.04.26.07l.18.05c.13.03.26.07.39.1l.39.12c.14.04.28.09.41.14l.35.13c.15.06.29.11.43.17l.35.16c.14.06.28.13.41.19.11.06.23.12.34.18.13.07.27.14.4.22.11.06.22.13.33.2.13.08.25.16.38.24.11.07.21.14.32.22.12.08.24.17.36.26.1.08.21.15.31.23.12.09.23.19.34.28l.29.25c.11.1.22.2.33.3.09.09.19.18.28.27.1.1.21.21.35.37.07.08.15.16.22.24.1.11.19.23.29.34.05.06.11.13.16.19-3.01,3.58-8.2,5.79-13.63,5.79ZM271.98,25.9c-.08-.08-.16-.15-.23-.22l-.07-.06c-.13-.12-.25-.24-.38-.35-.1-.08-.19-.17-.29-.25l-.21.25h0l.13-.31c-.12-.1-.24-.2-.36-.29-.1-.08-.2-.15-.34-.26-.14-.1-.27-.2-.42-.3-.12-.08-.24-.16-.35-.23-.14-.09-.29-.18-.44-.27-.12-.07-.24-.14-.37-.21-.15-.09-.3-.17-.45-.25-.12-.07-.25-.13-.38-.19-.16-.08-.32-.15-.47-.22-.13-.06-.25-.12-.38-.17-.16-.07-.33-.13-.49-.2-.13-.05-.26-.1-.39-.15-.17-.06-.34-.12-.51-.17l-.4-.12c-.17-.05-.35-.1-.53-.14l-.4-.1c-.16-.04-.33-.07-.55-.11l-.39-.08c-.17-.03-.34-.05-.58-.09l-.37-.05c-.22-.02-.43-.04-.65-.06l-.32-.03c-.33-.02-.65-.03-.98-.03h-32.57v-12.32h30.27c9,0,16.32,5.74,16.32,12.8,0,1.8-.5,3.62-1.46,5.27l-.03-.04c-.1-.12-.2-.24-.3-.35-.07-.08-.14-.15-.21-.23l-.07-.07c-.12-.13-.24-.26-.36-.38Z"/>
</svg>