<?xml version="1.0" encoding="UTF-8"?>
<svg id="Layer_1" data-name="Layer 1" xmlns="http://www.w3.org/2000/svg" viewBox="0 0 123.16 133.47">
  <defs>
    <style>
      .cls-1 {
        fill: #231f20;
      }
    </style>
  </defs>
  <path class="cls-1" d="M114.77,81.45l-2.15-2.95-.63-.75-.04.06c-4.31-4.92-10.34-8.8-17.22-11.09,6.88-2.29,12.91-6.16,17.22-11.09l.08.12,2.46-3.36.26-.44-.02-.02c2.98-4.64,4.56-9.84,4.56-15.07,0-17.76-17.61-32.22-39.26-32.22H10.78v55.38c-.07,1.91-.61,4.41-2.75,5.48-.59.29-2.47,1.04-2.49,1.04l-1.67.66,1.68.64c.53.2,2,.77,2.48,1.01,2.13,1.05,2.67,3.56,2.74,5.45v54.5h69.24c21.65,0,39.26-14.45,39.26-32.22,0-5.23-1.57-10.43-4.56-15.07l.05-.07ZM108.97,81.95c-.2.25-.41.49-.62.73-.14.16-.29.32-.44.48l-.17.18c-.2.21-.4.43-.61.63-.2.2-.4.39-.6.58-.23.22-.46.43-.69.64l-.63.54c-.24.2-.49.4-.74.6-.22.17-.44.34-.66.5-.26.19-.52.37-.78.55-.23.16-.46.31-.69.46-.27.17-.55.35-.82.51-.24.14-.47.28-.71.42-.28.16-.57.32-.86.47-.24.13-.48.25-.73.37-.29.15-.59.28-.9.42-.24.11-.49.22-.73.33-.31.13-.62.25-1.02.41-.22.09-.44.17-.67.25-.3.11-.6.2-.97.32l-.77.24c-.33.1-.67.18-1.01.27l-.2.05c-.19.05-.37.1-.56.14-.3.07-.61.13-1.05.22l-.24.05c-.17.04-.35.07-.52.1-.31.05-.62.1-.94.14l-.91.12c-.39.04-.78.07-1.25.11l-.62.05c-.63.03-1.26.05-1.89.05H14.97v-23.82h65.05c11.66,0,22.83,4.75,29.3,12.44-.11.14-.23.28-.35.42ZM14.97,97.62h70.01c.71,0,1.41-.02,2.11-.06l.78-.06c.44-.03.87-.07,1.31-.12.18-.02.37-.05.55-.07l.41-.06c.37-.05.73-.1,1.1-.17l.95-.19c.36-.07.72-.14,1.07-.22.24-.06.47-.12.85-.22.38-.1.76-.2,1.13-.31.24-.07.47-.14.85-.27.37-.12.73-.24,1.09-.36.28-.1.56-.21.84-.32.36-.14.7-.28,1.05-.42.28-.12.56-.24.83-.37.34-.15.68-.31,1.02-.48.27-.13.54-.27.8-.41.33-.17.66-.35.98-.54.27-.15.53-.3.79-.46.31-.19.63-.39.93-.59.26-.17.51-.33.77-.51.3-.21.59-.42.99-.71.21-.16.43-.31.63-.47.26-.2.52-.41.77-.63l-.44-.53.6.4c.21-.17.42-.35.63-.53.26-.23.51-.46.82-.76l.18-.17c.16-.15.32-.3.48-.45.24-.23.46-.48.78-.81l.17-.18c.15-.16.3-.31.44-.47.21-.24.41-.48.61-.73l.1-.12c2.06,3.55,3.14,7.44,3.14,11.32,0,15.16-15.73,27.5-35.07,27.5H14.97v-26.47ZM110.04,51.73l-.04.06-.02-.02.06-.04ZM80.02,64.38H14.97v-23.82h70.01c.63,0,1.26.02,1.9.06l.76.06c.37.03.73.06,1.1.1l.91.12c.31.04.63.09.94.14.17.03.35.07.52.1l.3.06c.33.07.66.13.98.2.19.04.37.09.56.14l.38.1c.28.07.56.15.83.22l.84.27c.3.1.6.19.89.3l.76.29c.31.12.62.24.92.37l.75.33c.3.14.59.27.89.41.24.12.49.25.73.38.29.15.57.3.85.46.24.14.47.28.71.42.27.17.55.34.82.51.23.15.46.31.69.46.26.18.52.36.78.55.22.16.44.33.66.5.25.2.5.4.74.6l.63.54c.24.21.47.43.7.65.2.19.4.38.6.57.22.22.44.46.75.78.16.17.31.34.47.51.21.24.42.49.62.74.12.14.23.28.34.42-6.47,7.69-17.63,12.44-29.3,12.44ZM109.85,45.89c-.16-.16-.33-.32-.5-.48l-.15-.14c-.27-.26-.54-.51-.82-.76-.21-.18-.42-.36-.63-.53l-.44.53h0l.29-.66c-.25-.21-.51-.42-.77-.62-.21-.16-.42-.32-.73-.55-.3-.22-.59-.43-.89-.64-.25-.17-.51-.34-.76-.5-.31-.2-.62-.4-.94-.59-.26-.16-.52-.31-.79-.46-.32-.18-.65-.36-.98-.53-.27-.14-.53-.28-.81-.41-.34-.17-.68-.33-1.02-.48-.27-.12-.55-.25-.83-.36-.35-.15-.7-.29-1.05-.43-.28-.11-.56-.22-.84-.32-.36-.13-.72-.25-1.09-.37l-.85-.27c-.37-.11-.75-.21-1.13-.31l-.86-.22c-.35-.08-.71-.15-1.18-.25l-.84-.17c-.37-.06-.73-.11-1.25-.19l-.81-.11c-.47-.05-.93-.09-1.4-.12l-.69-.06c-.7-.04-1.4-.06-2.11-.06H14.97V9.37h65.05c19.34,0,35.07,12.34,35.07,27.5,0,3.88-1.08,7.77-3.14,11.33l-.07-.09c-.21-.25-.42-.51-.63-.75-.15-.17-.3-.33-.46-.49l-.15-.16c-.26-.28-.52-.55-.78-.82Z"/>
</svg>