<?xml version="1.0" encoding="UTF-8"?>
<svg id="Layer_2" data-name="Layer 2" xmlns="http://www.w3.org/2000/svg" viewBox="0 0 930 60.07">
  <defs>
    <style>
      .cls-1 {
        fill: #ead9c0;
      }
    </style>
  </defs>
  <g id="Layer_1-2" data-name="Layer 1">
    <g>
      <path class="cls-1" d="M53.66,37.16l-1.04-1.42-.3-.36-.02.03c-2.09-2.39-5.01-4.26-8.34-5.37,3.33-1.11,6.25-2.98,8.34-5.37l.04.06,1.19-1.62.13-.21h0c1.44-2.25,2.21-4.77,2.21-7.3,0-8.6-8.52-15.59-19-15.59H3.34v26.8c-.04.92-.3,2.13-1.33,2.65-.28.14-1.19.5-1.2.51l-.81.32.81.31c.26.1.97.37,1.2.49,1.03.51,1.29,1.72,1.33,2.64v26.37h33.51c10.48,0,19-6.99,19-15.59,0-2.53-.76-5.05-2.21-7.29l.02-.03ZM50.85,37.4c-.1.12-.2.24-.3.35l-.27.3c-.11.11-.21.22-.32.33-.09.09-.19.19-.29.28-.11.1-.22.21-.34.31-.1.09-.2.18-.3.26-.12.1-.24.19-.36.29-.11.08-.21.17-.32.25-.12.09-.25.18-.38.27-.11.08-.22.15-.33.22-.13.08-.26.17-.4.25-.11.07-.23.14-.34.2-.14.08-.28.15-.42.23-.12.06-.23.12-.35.18-.13.06-.25.12-.38.18l.14.3s0,0,0,0l-.24-.26-.3.14c-.15.06-.3.12-.5.2-.1.04-.21.08-.32.12-.14.05-.29.1-.47.15l-.09.03c-.09.03-.19.06-.28.09-.14.04-.27.07-.49.13l-.37.09c-.12.03-.24.05-.36.08l-.52.1c-.17.03-.35.05-.54.08l-.35.05c-.2.02-.4.04-.61.05l-.3.02c-.3.02-.61.03-.92.03H5.37v-11.53h31.48c5.64,0,11.05,2.3,14.18,6.02l-.17.2ZM5.37,44.98h33.88c.34,0,.68,0,1.02-.03l.42-.04c.2-.01.4-.03.6-.05l.48-.07c.17-.02.34-.05.51-.08l.41-.08c.19-.04.38-.07.57-.12.11-.02.22-.05.33-.08l.09-.02c.18-.05.37-.1.55-.15.11-.03.22-.07.33-.1l.09-.03c.18-.06.35-.11.53-.18.14-.05.27-.1.41-.15.17-.07.34-.13.51-.21.13-.06.27-.12.4-.18.16-.07.33-.15.49-.23.13-.06.26-.13.39-.2.16-.08.32-.17.47-.26.13-.07.26-.15.38-.22.15-.09.3-.19.45-.28.12-.08.25-.16.37-.24.12-.08.23-.16.34-.24l.2-.15c.08-.06.17-.12.25-.19.14-.11.28-.22.42-.34l.33-.28c.12-.1.23-.21.4-.37l.32-.3c.11-.11.22-.23.38-.39l.08-.08c.07-.08.15-.15.22-.23.1-.12.21-.24.34-.41,1,1.72,1.52,3.6,1.52,5.48,0,7.34-7.61,13.31-16.97,13.31H5.37v-12.81ZM36.84,28.9H5.37v-11.53h33.88c.31,0,.61,0,.92.03l.3.02c.2.02.41.03.6.05l.36.05c.18.02.35.05.53.08l.52.1c.12.02.24.05.36.07l.46.12c.13.03.27.07.39.1l.4.13c.15.05.29.09.44.15.1.04.21.08.37.14.15.06.3.12.44.18l.37.16c.14.07.29.13.43.2.12.06.24.12.35.18.14.07.28.15.42.23.11.06.23.13.34.2.13.08.26.16.39.24.11.07.22.15.33.22.13.09.25.18.38.27.11.08.22.16.32.24.12.1.24.19.36.29l.3.26c.11.1.23.21.34.31.1.09.2.18.29.28.11.11.21.22.32.34.09.1.18.19.27.29.1.12.2.24.3.35l.08.1s.06.07.09.11c-3.13,3.72-8.53,6.02-14.18,6.02ZM51.28,19.95l-.36-.35c-.12-.11-.23-.22-.35-.32-.08-.07-.17-.14-.25-.21l-.09-.07c-.14-.12-.28-.23-.41-.34-.08-.06-.16-.13-.25-.19l-.2-.15c-.11-.08-.23-.16-.34-.24-.12-.08-.25-.17-.37-.24-.15-.1-.3-.19-.45-.29-.13-.08-.25-.15-.38-.22-.16-.09-.31-.17-.47-.26-.13-.07-.26-.14-.39-.2-.16-.08-.33-.16-.49-.23-.13-.06-.26-.12-.4-.18-.17-.07-.34-.14-.51-.2-.14-.05-.27-.1-.41-.15-.17-.06-.35-.12-.53-.18l-.09-.03c-.11-.03-.22-.07-.32-.1-.18-.05-.36-.1-.55-.15l-.09-.02c-.11-.03-.22-.06-.33-.08-.19-.04-.38-.08-.57-.12l-.41-.08c-.17-.03-.34-.05-.51-.08l-.48-.07c-.2-.02-.4-.04-.67-.06l-.34-.03c-.34-.02-.68-.03-1.02-.03H5.37V2.28h31.48c9.36,0,16.97,5.97,16.97,13.31,0,1.88-.52,3.76-1.52,5.48l-.02-.02c-.11-.13-.21-.26-.33-.38-.07-.08-.14-.16-.22-.23l-.12-.13c-.11-.12-.22-.23-.33-.35Z"/>
      <g>
        <path class="cls-1" d="M109.73,48.16c4.74,0,8.33-.86,10.76-2.59,2.44-1.73,3.66-4.25,3.66-7.57,0-2.27-.69-4.17-2.08-5.71-1.39-1.54-3.4-2.63-6.04-3.27,4.43-1.12,6.65-3.79,6.65-8.02,0-3.01-1.13-5.28-3.38-6.8-2.25-1.52-5.58-2.28-9.98-2.28h-16.25v14.64c-.04.93-.35,1.84-1.17,2.26-.23.12-.96.4-.96.4,0,0,.72.27.96.39.83.41,1.13,1.32,1.17,2.25v16.31h16.65ZM96.43,14.8h12.64c3.49,0,6.05.51,7.69,1.52,1.64,1.02,2.46,2.62,2.46,4.82,0,4.4-3.2,6.6-9.6,6.6h-13.2v-12.95ZM96.43,30.64h13.56c3.49,0,6.14.63,7.95,1.88,1.81,1.25,2.72,3.08,2.72,5.48s-.9,4.3-2.69,5.48c-1.8,1.19-4.6,1.78-8.43,1.78h-13.1v-14.62Z"/>
        <polygon class="cls-1" points="180.05 16.63 206.3 48.16 209.6 48.16 209.6 11.9 206.3 11.9 206.3 43.43 180.05 11.9 176.7 11.9 176.7 48.16 180.05 48.16 180.05 16.63"/>
        <path class="cls-1" d="M254.79,48.16h3.76l-17.62-36.25h-3.5l-17.67,36.25h3.66l5.23-10.86h20.92l5.23,10.86ZM229.91,34.5l9.19-19.04,9.19,19.04h-18.38Z"/>
        <polygon class="cls-1" points="297.44 45.16 269.66 45.16 296.88 14.59 296.88 11.9 265.81 11.9 265.81 14.9 292.61 14.9 265.35 45.46 265.35 48.16 296.73 48.16 297.44 45.16"/>
        <rect class="cls-1" x="308.05" y="11.9" width="3.4" height="36.25"/>
        <polygon class="cls-1" points="365.02 22.16 367.66 22.16 370.5 11.9 367.1 11.9 365.02 22.16"/>
        <path class="cls-1" d="M409.44,31.83c-1.96-1.68-5.06-2.8-9.29-3.38l-6.5-.91c-3.49-.51-5.97-1.27-7.46-2.28-1.49-1.01-2.23-2.5-2.23-4.47,0-2.2,1.06-3.88,3.17-5.05,2.12-1.17,5.1-1.75,8.96-1.75,3.45,0,6.13.52,8.02,1.55,1.9,1.03,3.32,2.75,4.27,5.15l3.2-.61c-1.05-3.21-2.78-5.53-5.2-6.96-2.42-1.42-5.85-2.13-10.28-2.13-4.84,0-8.64.86-11.4,2.59-2.76,1.73-4.14,4.16-4.14,7.31,0,2.84.99,5.04,2.97,6.58,1.98,1.54,5.27,2.63,9.88,3.27l5.79.81c3.49.44,5.98,1.23,7.49,2.36,1.51,1.14,2.26,2.73,2.26,4.8,0,2.4-1.02,4.23-3.07,5.48-2.05,1.25-5.05,1.88-9.01,1.88-8.12,0-12.73-2.54-13.81-7.62h-3.45c.95,7.07,6.7,10.61,17.26,10.61,4.98,0,8.81-.9,11.5-2.69,2.69-1.79,4.04-4.35,4.04-7.67,0-2.91-.98-5.21-2.94-6.88Z"/>
        <path class="cls-1" d="M477.79,14.71c-2.32-1.86-5.7-2.79-10.13-2.79h-16.86v17.86c-.06.89-.37,1.76-1.17,2.16-.23.12-.96.4-.96.4,0,0,.72.27.96.39.8.39,1.11,1.26,1.17,2.15v13.3h3.4v-14.37h12.85c9.48,0,14.22-3.67,14.22-11.02,0-3.52-1.16-6.21-3.48-8.07ZM467.2,30.86h-13v-15.94h13.15c6.91,0,10.36,2.61,10.36,7.82s-3.5,8.12-10.51,8.12Z"/>
        <polygon class="cls-1" points="522.49 27.81 496.45 27.81 496.45 11.92 493.04 11.92 493.04 48.17 496.45 48.17 496.45 30.96 522.49 30.96 522.49 48.17 525.84 48.17 525.84 11.92 522.49 11.92 522.49 27.81"/>
        <path class="cls-1" d="M568.42,13.34c-2.96-1.56-6.46-2.34-10.49-2.34s-7.47.78-10.43,2.34c-2.96,1.56-5.25,3.76-6.88,6.6-1.62,2.84-2.44,6.21-2.44,10.1s.81,7.26,2.44,10.1c1.63,2.84,3.92,5.05,6.88,6.6,2.96,1.56,6.44,2.34,10.43,2.34s7.52-.78,10.49-2.34c2.96-1.56,5.25-3.76,6.88-6.6,1.62-2.84,2.44-6.21,2.44-10.1s-.81-7.26-2.44-10.1c-1.63-2.84-3.92-5.04-6.88-6.6ZM572.23,38.63c-1.3,2.4-3.17,4.24-5.61,5.51-2.44,1.27-5.33,1.9-8.68,1.9s-6.24-.63-8.68-1.9c-2.44-1.27-4.31-3.11-5.61-5.51-1.3-2.4-1.96-5.26-1.96-8.58s.66-6.22,1.98-8.61c1.32-2.39,3.19-4.21,5.61-5.48,2.42-1.27,5.31-1.9,8.66-1.9s6.29.64,8.71,1.9c2.42,1.27,4.28,3.1,5.58,5.48,1.3,2.39,1.96,5.25,1.96,8.61s-.65,6.18-1.96,8.58Z"/>
        <polygon class="cls-1" points="583.83 14.91 599.31 14.91 599.31 48.17 602.72 48.17 602.72 14.91 618.2 14.91 618.2 11.92 583.83 11.92 583.83 14.91"/>
        <path class="cls-1" d="M654.53,13.34c-2.96-1.56-6.46-2.34-10.49-2.34s-7.47.78-10.43,2.34c-2.96,1.56-5.25,3.76-6.88,6.6-1.62,2.84-2.44,6.21-2.44,10.1s.81,7.26,2.44,10.1c1.63,2.84,3.92,5.05,6.88,6.6s6.44,2.34,10.43,2.34,7.52-.78,10.49-2.34c2.96-1.56,5.25-3.76,6.88-6.6,1.62-2.84,2.44-6.21,2.44-10.1s-.81-7.26-2.44-10.1c-1.63-2.84-3.92-5.04-6.88-6.6ZM658.34,38.63c-1.3,2.4-3.17,4.24-5.61,5.51-2.44,1.27-5.33,1.9-8.68,1.9s-6.24-.63-8.68-1.9c-2.44-1.27-4.31-3.11-5.61-5.51-1.3-2.4-1.96-5.26-1.96-8.58s.66-6.22,1.98-8.61c1.32-2.39,3.19-4.21,5.61-5.48,2.42-1.27,5.31-1.9,8.66-1.9s6.29.64,8.71,1.9c2.42,1.27,4.28,3.1,5.58,5.48,1.3,2.39,1.96,5.25,1.96,8.61s-.65,6.18-1.96,8.58Z"/>
        <path class="cls-1" d="M694.67,33.14h12.64v9.6c-1.66,1.01-3.59,1.82-5.79,2.41s-4.59.89-7.16.89c-5.11,0-9.16-1.36-12.13-4.09-2.98-2.72-4.47-6.66-4.47-11.8,0-3.32.63-6.18,1.88-8.58,1.25-2.4,3.06-4.26,5.43-5.56,2.37-1.3,5.21-1.96,8.53-1.96s5.9.64,8.05,1.93c2.15,1.29,3.7,3.22,4.65,5.79l3.3-.66c-1.08-3.25-2.98-5.74-5.69-7.49-2.71-1.74-6.11-2.61-10.21-2.61s-7.35.79-10.28,2.36c-2.93,1.57-5.19,3.79-6.78,6.65-1.59,2.86-2.39,6.25-2.39,10.18s.83,7.5,2.49,10.31c1.66,2.81,3.99,4.94,7.01,6.4,3.01,1.46,6.53,2.18,10.56,2.18,3.01,0,5.95-.43,8.81-1.3,2.86-.86,5.32-2.09,7.39-3.68v-13.91h-15.84v2.94Z"/>
        <path class="cls-1" d="M751.28,28.5c1.29-1.64,1.93-3.72,1.93-6.22,0-3.35-1.12-5.91-3.35-7.69-2.23-1.78-5.6-2.67-10.1-2.67h-16.65v16.57c-.04.93-.35,1.84-1.17,2.25-.23.12-.95.4-.95.4,0,0,.72.27.95.39.83.41,1.13,1.32,1.17,2.25v14.39h3.35v-15.54h14.34c.42,0,.82-.03,1.19-.1l8.99,15.64h3.86l-9.44-16.25c2.64-.64,4.6-1.79,5.89-3.43ZM739.35,29.64h-12.9v-14.72h13.05c3.52,0,6.09.61,7.72,1.83s2.44,3.05,2.44,5.48c0,4.94-3.44,7.41-10.31,7.41Z"/>
        <path class="cls-1" d="M779.2,11.92l-17.67,36.25h3.66l5.23-10.86h20.92l5.23,10.86h3.76l-17.62-36.25h-3.5ZM771.69,34.51l9.19-19.04,9.19,19.04h-18.38Z"/>
        <path class="cls-1" d="M837.47,14.71c-2.32-1.86-5.7-2.79-10.13-2.79h-16.86v17.74c-.04.93-.35,1.86-1.18,2.27-.23.12-.96.4-.96.4,0,0,.72.27.96.39.83.41,1.14,1.33,1.18,2.27v13.18h3.4v-14.37h12.85c9.48,0,14.22-3.67,14.22-11.02,0-3.52-1.16-6.21-3.48-8.07ZM826.88,30.86h-13v-15.94h13.15c6.91,0,10.36,2.61,10.36,7.82s-3.5,8.12-10.51,8.12Z"/>
        <polygon class="cls-1" points="882.17 27.81 856.12 27.81 856.12 11.92 852.72 11.92 852.72 48.17 856.12 48.17 856.12 30.96 882.17 30.96 882.17 48.17 885.52 48.17 885.52 11.92 882.17 11.92 882.17 27.81"/>
        <polygon class="cls-1" points="926.04 11.92 912.94 29.79 899.84 11.92 895.68 11.92 911.16 32.73 911.16 48.17 914.57 48.17 914.57 32.68 930 11.92 926.04 11.92"/>
        <path class="cls-1" d="M136.13,32.28h0v15.88h28.23l.66-3h-25.49v-14.22h23.51v-3h-23.51v-13.05h24.73v-3h-28.13v14.21h0c.04,1.07-.22,2.21-1.18,2.69-.23.12-.96.4-.96.4,0,0,.72.27.96.39.96.47,1.22,1.62,1.18,2.69Z"/>
        <path class="cls-1" d="M325.67,33.75v14.4h3.35v-15.54h14.34c.42,0,.82-.03,1.19-.1l8.99,15.64h3.86l-9.44-16.25c2.64-.64,4.6-1.79,5.89-3.43,1.29-1.64,1.93-3.72,1.93-6.22,0-3.35-1.12-5.91-3.35-7.69-2.23-1.78-5.6-2.67-10.1-2.67h-16.65v16.59c-.05.92-.35,1.82-1.17,2.23-.23.12-.95.4-.95.4,0,0,.72.27.95.39.82.41,1.13,1.31,1.17,2.23ZM329.02,14.9h13.05c3.52,0,6.09.61,7.72,1.83,1.63,1.22,2.44,3.05,2.44,5.48,0,4.94-3.44,7.41-10.31,7.41h-12.9v-14.72Z"/>
      </g>
    </g>
  </g>
</svg>