<?xml version="1.0" encoding="UTF-8"?>
<svg id="Layer_1" data-name="Layer 1" xmlns="http://www.w3.org/2000/svg" viewBox="0 0 938.2 74.44">
  <defs>
    <style>
      .cls-1 { fill: #FCF1E2; }
    </style>
  </defs>
  <path class="cls-1" d="M57.76,44.34l-1.04-1.42-.3-.36-.02.03c-2.09-2.39-5.01-4.26-8.34-5.37,3.33-1.11,6.25-2.98,8.34-5.37l.04.06,1.19-1.62.13-.21h0c1.44-2.25,2.21-4.77,2.21-7.3,0-8.6-8.52-15.59-1[...]
  <g>
    <path class="cls-1" d="M113.83,55.34c4.74,0,8.33-.86,10.76-2.59,2.44-1.73,3.66-4.25,3.66-7.57,0-2.27-.69-4.17-2.08-5.71-1.39-1.54-3.4-2.63-6.04-3.27,4.43-1.12,6.65-3.79,6.65-8.02,0-3.01-1.13-5.[...]
    <polygon class="cls-1" points="184.15 23.81 210.4 55.34 213.7 55.34 213.7 19.09 210.4 19.09 210.4 50.62 184.15 19.09 180.8 19.09 180.8 55.34 184.15 55.34 184.15 23.81"></polygon>
    <path class="cls-1" d="M258.89,55.34h3.76l-17.62-36.25h-3.5l-17.67,36.25h3.66l5.23-10.86h20.92l5.23,10.86ZM234.01,41.68l9.19-19.04,9.19,19.04h-18.38Z"></path>
    <polygon class="cls-1" points="301.54 52.34 273.76 52.34 300.98 21.78 300.98 19.09 269.91 19.09 269.91 22.08 296.71 22.08 269.45 52.65 269.45 55.34 300.83 55.34 301.54 52.34"></polygon>
    <rect class="cls-1" x="312.15" y="19.09" width="3.4" height="36.25"></rect>
    <polygon class="cls-1" points="369.12 29.34 371.76 29.34 374.6 19.09 371.2 19.09 369.12 29.34"></polygon>
    <path class="cls-1" d="M413.54,39.02c-1.96-1.68-5.06-2.8-9.29-3.38l-6.5-.91c-3.49-.51-5.97-1.27-7.46-2.28-1.49-1.01-2.23-2.5-2.23-4.47,0-2.2,1.06-3.88,3.17-5.05,2.12-1.17,5.1-1.75,8.96-1.75,3.[...]
    <path class="cls-1" d="M481.89,21.89c-2.32-1.86-5.7-2.79-10.13-2.79h-16.86v17.86c-.06.89-.37,1.76-1.17,2.16-.23.12-.96.4-.96.4,0,0,.72.27.96.39.8.39,1.11,1.26,1.17,2.15v13.3h3.4v-14.37h12.85c9[...]
    <polygon class="cls-1" points="526.59 34.99 500.55 34.99 500.55 19.1 497.14 19.1 497.14 55.35 500.55 55.35 500.55 38.14 526.59 38.14 526.59 55.35 529.94 55.35 529.94 19.1 526.59 19.1 526.59 34[...]
    <path class="cls-1" d="M572.52,20.52c-2.96-1.56-6.46-2.34-10.49-2.34s-7.47.78-10.43,2.34c-2.96,1.56-5.25,3.76-6.88,6.6-1.62,2.84-2.44,6.21-2.44,10.1s.81,7.26,2.44,10.1c1.63,2.84,3.92,5.05,6.88[...]
    <polygon class="cls-1" points="587.93 22.1 603.41 22.1 603.41 55.35 606.82 55.35 606.82 22.1 622.3 22.1 622.3 19.1 587.93 19.1 587.93 22.1"></polygon>
    <path class="cls-1" d="M658.63,20.52c-2.96-1.56-6.46-2.34-10.49-2.34s-7.47.78-10.43,2.34c-2.96,1.56-5.25,3.76-6.88,6.6-1.62,2.84-2.44,6.21-2.44,10.1s.81,7.26,2.44,10.1c1.63,2.84,3.92,5.05,6.88[...]
    <path class="cls-1" d="M698.77,40.32h12.64v9.6c-1.66,1.01-3.59,1.82-5.79,2.41s-4.59.89-7.16.89c-5.11,0-9.16-1.36-12.13-4.09-2.98-2.72-4.47-6.66-4.47-11.8,0-3.32.63-6.18,1.88-8.58,1.25-2.4,3.06[...]
    <path class="cls-1" d="M755.38,35.68c1.29-1.64,1.93-3.72,1.93-6.22,0-3.35-1.12-5.91-3.35-7.69-2.23-1.78-5.6-2.67-10.1-2.67h-16.65v16.57c-.04.93-.35,1.84-1.17,2.25-.23.12-.95.4-.95.4,0,0,.72.27[...]
    <path class="cls-1" d="M783.3,19.1l-17.67,36.25h3.66l5.23-10.86h20.92l5.23,10.86h3.76l-17.62-36.25h-3.5ZM775.79,41.7l9.19-19.04,9.19,19.04h-18.38Z"></path>
    <path class="cls-1" d="M841.57,21.89c-2.32-1.86-5.7-2.79-10.13-2.79h-16.86v17.74c-.04.93-.35,1.86-1.18,2.27-.23.12-.96.4-.96.4,0,0,.72.27.96.39.83.41,1.14,1.33,1.18,2.27v13.18h3.4v-14.37h12.85[...]
    <polygon class="cls-1" points="886.27 34.99 860.23 34.99 860.23 19.1 856.82 19.1 856.82 55.35 860.23 55.35 860.23 38.14 886.27 38.14 886.27 55.35 889.62 55.35 889.62 19.1 886.27 19.1 886.27 34[...]
    <polygon class="cls-1" points="930.14 19.1 917.04 36.97 903.94 19.1 899.78 19.1 915.26 39.92 915.26 55.35 918.67 55.35 918.67 39.87 934.1 19.1 930.14 19.1"></polygon>
    <path class="cls-1" d="M140.23,39.46h0v15.88h28.23l.66-3h-25.49v-14.22h23.51v-3h-23.51v-13.05h24.73v-3h-28.13v14.21h0c.04,1.07-.22,2.21-1.18,2.69-.23.12-.96.4-.96.4,0,0,.72.27.96.39.96.47,1.22[...]
    <path class="cls-1" d="M329.77,40.94v14.4h3.35v-15.54h14.34c.42,0,.82-.03,1.19-.1l8.99,15.64h3.86l-9.44-16.25c2.64-.64,4.6-1.79,5.89-3.43,1.29-1.64,1.93-3.72,1.93-6.22,0-3.35-1.12-5.91-3.35-7.[...]
  </g>
</svg>