<?xml version="1.0" encoding="UTF-8"?>
<svg id="Layer_1" data-name="Layer 1" xmlns="http://www.w3.org/2000/svg" viewBox="0 0 499.03 204.05">
  <defs>
    <style>
      .cls-1 { fill: #FCF1E2; }
    </style>
  </defs>
  <g>
    <path class="cls-1" d="M104.5,132.3c4.81,0,8.45-.87,10.92-2.63,2.47-1.75,3.71-4.31,3.71-7.67,0-2.3-.7-4.23-2.11-5.79-1.41-1.56-3.45-2.67-6.13-3.32,4.5-1.13,6.75-3.84,6.75-8.14,0-3.05-1.14-5.36-[...]
    <polygon class="cls-1" points="175.82 100.32 202.45 132.3 205.79 132.3 205.79 95.53 202.45 95.53 202.45 127.51 175.82 95.53 172.42 95.53 172.42 132.3 175.82 132.3 175.82 100.32"></polygon>
    <path class="cls-1" d="M251.62,132.3h3.81l-17.87-36.77h-3.55l-17.92,36.77h3.71l5.3-11.02h21.22l5.3-11.02ZM226.39,118.44l9.32-19.31,9.32,19.31h-18.64Z"></path>
    <polygon class="cls-1" points="294.88 129.26 266.71 129.26 294.32 98.26 294.32 95.53 262.8 95.53 262.8 98.57 289.99 98.57 262.34 129.57 262.34 132.3 294.16 132.3 294.88 129.26"></polygon>
    <rect class="cls-1" x="305.64" y="95.53" width="3.45" height="36.77"></rect>
    <polygon class="cls-1" points="363.42 105.93 366.1 105.93 368.99 95.53 365.54 95.53 363.42 105.93"></polygon>
    <path class="cls-1" d="M408.49,115.74c-1.99-1.7-5.13-2.84-9.42-3.42l-6.59-.93c-3.54-.51-6.06-1.29-7.57-2.32s-2.27-2.54-2.27-4.53c0-2.23,1.07-3.94,3.22-5.12,2.15-1.18,5.18-1.78,9.09-1.78,3.5,0,[...]
    <path class="cls-1" d="M34.95,162.47c-2.35-1.89-5.78-2.83-10.27-2.83H7.57v18.11c-.06.91-.38,1.78-1.18,2.19-.24.12-.97.41-.97.41,0,0,.73.28.97.39.81.4,1.12,1.28,1.18,2.18v13.48h3.45v-14.57h13.0[...]
    <polygon class="cls-1" points="80.29 175.76 53.87 175.76 53.87 159.64 50.42 159.64 50.42 196.41 53.87 196.41 53.87 178.95 80.29 178.95 80.29 196.41 83.69 196.41 83.69 159.64 80.29 159.64 80.29[...]
    <path class="cls-1" d="M126.87,161.08c-3.01-1.58-6.55-2.37-10.64-2.37s-7.58.79-10.58,2.37c-3,1.58-5.33,3.81-6.98,6.69-1.65,2.88-2.47,6.3-2.47,10.25s.82,7.36,2.47,10.25c1.65,2.88,3.97,5.12,6.98[...]
    <polygon class="cls-1" points="142.5 162.68 158.21 162.68 158.21 196.41 161.66 196.41 161.66 162.68 177.36 162.68 177.36 159.64 142.5 159.64 142.5 162.68"></polygon>
    <path class="cls-1" d="M214.21,161.08c-3.01-1.58-6.55-2.37-10.64-2.37s-7.58.79-10.58,2.37c-3,1.58-5.33,3.81-6.98,6.69-1.65,2.88-2.47,6.3-2.47,10.25s.82,7.36,2.47,10.25c1.65,2.88,3.97,5.12,6.98[...]
    <path class="cls-1" d="M254.92,181.16h12.82v9.73c-1.68,1.03-3.64,1.85-5.87,2.45-2.23.6-4.65.9-7.26.9-5.19,0-9.29-1.38-12.31-4.15-3.02-2.76-4.53-6.75-4.53-11.97,0-3.36.64-6.26,1.91-8.7,1.27-2.4[...]
    <path class="cls-1" d="M312.34,176.45c1.3-1.67,1.96-3.77,1.96-6.31,0-3.4-1.13-6-3.4-7.8-2.27-1.8-5.68-2.7-10.25-2.7h-16.89v16.81c-.04.94-.36,1.86-1.19,2.28-.23.12-.97.41-.97.41,0,0,.73.28.97.3[...]
    <path class="cls-1" d="M340.66,159.64l-17.92,36.77h3.71l5.3-11.02h21.22l5.3,11.02h3.81l-17.87-36.77h-3.55ZM333.04,182.55l9.32-19.31,9.32,19.31h-18.64Z"></path>
    <path class="cls-1" d="M399.76,162.47c-2.35-1.89-5.78-2.83-10.27-2.83h-17.1v17.99c-.04.95-.35,1.88-1.19,2.3-.24.12-.97.41-.97.41,0,0,.73.28.97.39.84.42,1.15,1.35,1.19,2.3v13.37h3.45v-14.57h13.[...]
    <polygon class="cls-1" points="445.1 175.76 418.68 175.76 418.68 159.64 415.23 159.64 415.23 196.41 418.68 196.41 418.68 178.95 445.1 178.95 445.1 196.41 448.5 196.41 448.5 159.64 445.1 159.64[...]
    <polygon class="cls-1" points="489.6 159.64 476.31 177.76 463.02 159.64 458.8 159.64 474.51 180.75 474.51 196.41 477.96 196.41 477.96 180.7 493.61 159.64 489.6 159.64"></polygon>
    <path class="cls-1" d="M131.27,116.19h0v16.1h28.63l.67-3.04h-25.85v-14.42h23.84v-3.04h-23.84v-13.23h25.08v-3.04h-28.53v14.41h0c.04,1.08-.23,2.24-1.19,2.72-.24.12-.97.41-.97.41,0,0,.73.28.97.39[...]
    <path class="cls-1" d="M323.51,117.69v14.61h3.4v-15.76h14.55c.43,0,.83-.03,1.21-.1l9.12,15.86h3.91l-9.58-16.48c2.68-.65,4.67-1.81,5.97-3.48,1.3-1.67,1.96-3.77,1.96-6.31,0-3.4-1.13-6-3.4-7.8-2.[...]
  </g>
  <path class="cls-1" d="M274.26,42.45l-1-1.37-.29-.35-.02.03c-2.01-2.29-4.81-4.09-8.01-5.16,3.2-1.06,6.01-2.87,8.01-5.16l.04.06,1.14-1.56.12-.2h0c1.39-2.17,2.12-4.59,2.12-7.02,0-8.27-8.19-14.99-1[...]
</svg>