<?xml version="1.0" encoding="UTF-8"?>
<svg id="Layer_1" data-name="Layer 1" xmlns="http://www.w3.org/2000/svg" viewBox="0 0 499.03 266.88">
  <defs>
    
  </defs>
  <g>
    <g>
      <g>
        <path class="cls-1" d="M176.86,226.55h1.4l2.68,5.6,2.68-5.6h1.36v6.81h-1.11v-5.2l-2.49,5.2h-.94l-2.49-5.15v5.15h-1.09v-6.81Z"></path>
        <path class="cls-1" d="M189.61,226.55h1.15v6.81h-1.15v-6.81Z"></path>
        <path class="cls-1" d="M195.4,226.55h1.09l4.32,5.22v-5.22h1.12v6.81h-1.09l-4.32-5.22v5.22h-1.12v-6.81Z"></path>
        <path class="cls-1" d="M206.57,226.55h1.09l4.32,5.22v-5.22h1.12v6.81h-1.09l-4.32-5.22v5.22h-1.12v-6.81Z"></path>
        <path class="cls-1" d="M217.74,226.55h5.53v.95h-4.38v1.88h4.16v.95h-4.16v2.07h4.59l-.17.96h-5.56v-6.81Z"></path>
        <path class="cls-1" d="M232.58,231.52c0-.29-.11-.51-.34-.67s-.59-.28-1.08-.35l-1.19-.18c-.92-.13-1.58-.36-1.98-.67s-.59-.76-.59-1.35.28-1.08.83-1.42c.55-.34,1.32-.51,2.3-.51.89,0,1.58.14,2.06.43.49.29.82.75,1,1.39l-1.1.17c-.15-.38-.38-.64-.69-.81-.31-.16-.73-.24-1.29-.24-.62,0-1.11.08-1.45.25-.34.17-.51.4-.51.71s.11.51.33.66c.22.15.61.26,1.17.35l1.35.2c.81.12,1.4.34,1.78.67s.57.78.57,1.36c0,.64-.27,1.13-.81,1.48-.55.35-1.31.53-2.31.53-2.13,0-3.27-.74-3.42-2.21h1.16c.09.43.32.74.69.95.37.21.89.31,1.57.31.62,0,1.1-.09,1.44-.28.33-.19.5-.45.5-.79Z"></path>
        <path class="cls-1" d="M237.66,229.95c0-.73.16-1.36.48-1.9s.77-.95,1.35-1.24,1.26-.44,2.04-.44,1.47.15,2.05.44c.58.29,1.02.71,1.34,1.24s.47,1.17.47,1.9-.16,1.36-.48,1.9c-.32.54-.76.95-1.34,1.25-.58.29-1.26.44-2.05.44s-1.46-.15-2.04-.44c-.58-.29-1.02-.71-1.34-1.24s-.47-1.17-.47-1.9ZM238.86,229.95c0,.81.23,1.45.7,1.9.47.45,1.12.68,1.96.68s1.48-.23,1.95-.69c.47-.46.7-1.09.7-1.9s-.23-1.45-.7-1.9-1.12-.68-1.96-.68-1.49.23-1.96.68c-.47.45-.71,1.09-.71,1.9Z"></path>
        <path class="cls-1" d="M251.33,227.54h-2.77v-.99h6.69v.99h-2.77v5.82h-1.16v-5.82Z"></path>
        <path class="cls-1" d="M258.54,233.36h-1.21l3.24-6.81h1.25l3.24,6.81h-1.26l-.82-1.76h-3.63l-.8,1.76ZM261.17,227.65l-1.4,3.03h2.8l-1.4-3.03Z"></path>
        <path class="cls-1" d="M274.45,226.55h3.14c1.81,0,2.72.58,2.72,1.75,0,.73-.37,1.21-1.11,1.46.92.31,1.37.85,1.37,1.63,0,.64-.24,1.13-.72,1.47-.49.34-1.19.51-2.13.51h-3.27v-6.81ZM278.77,227.68c-.26-.14-.67-.21-1.24-.21h-1.97v1.9h2.07c.53,0,.92-.08,1.16-.24.25-.16.37-.41.37-.75,0-.32-.13-.55-.39-.69ZM279.41,231.37c0-.38-.14-.66-.43-.85-.28-.18-.72-.28-1.3-.28h-2.12v2.2h2.1c.62,0,1.06-.08,1.34-.25s.41-.44.41-.82Z"></path>
        <path class="cls-1" d="M285.02,233.36h-1.21l3.23-6.81h1.25l3.23,6.81h-1.26l-.82-1.76h-3.63l-.8,1.76ZM287.65,227.65l-1.4,3.03h2.81l-1.4-3.03Z"></path>
        <path class="cls-1" d="M300.33,231.52c0-.29-.11-.51-.34-.67-.23-.16-.59-.28-1.08-.35l-1.19-.18c-.92-.13-1.58-.36-1.97-.67-.4-.31-.59-.76-.59-1.35s.27-1.08.83-1.42c.55-.34,1.32-.51,2.29-.51.89,0,1.58.14,2.07.43.49.29.82.75,1,1.39l-1.1.17c-.15-.38-.38-.64-.69-.81-.31-.16-.73-.24-1.29-.24-.62,0-1.1.08-1.45.25-.34.17-.51.4-.51.71s.11.51.33.66c.22.15.61.26,1.17.35l1.35.2c.81.12,1.4.34,1.79.67s.57.78.57,1.36c0,.64-.27,1.13-.82,1.48-.54.35-1.31.53-2.31.53-2.13,0-3.26-.74-3.42-2.21h1.16c.09.43.32.74.69.95.37.21.89.31,1.58.31.62,0,1.1-.09,1.44-.28.33-.19.5-.45.5-.79Z"></path>
        <path class="cls-1" d="M305.76,226.55h5.53v.95h-4.38v1.88h4.16v.95h-4.16v2.07h4.59l-.17.96h-5.57v-6.81Z"></path>
        <path class="cls-1" d="M315.69,226.55h2.95c1.26,0,2.22.29,2.89.88.67.59,1,1.43,1,2.53s-.36,1.94-1.07,2.52c-.71.59-1.73.88-3.04.88h-2.73v-6.81ZM321.34,229.95c0-1.62-.9-2.42-2.69-2.42h-1.8v4.85h1.61c.95,0,1.67-.2,2.15-.61.49-.41.73-1.01.73-1.81Z"></path>
      </g>
      <g>
        <path class="cls-1" d="M102.16,255.74c0-.71.15-1.34.45-1.87s.73-.95,1.28-1.25c.55-.3,1.21-.45,1.97-.45,1.82,0,2.94.76,3.36,2.28l-1.14.15c-.18-.51-.44-.88-.79-1.1s-.83-.34-1.43-.34c-.51,0-.96.1-1.33.32-.37.21-.66.51-.86.89-.2.38-.31.84-.31,1.38,0,.81.22,1.44.67,1.9.45.46,1.07.69,1.86.69.66,0,1.17-.12,1.54-.36s.6-.61.73-1.12h1.18c-.12.8-.48,1.41-1.08,1.83-.6.43-1.39.64-2.38.64-.77,0-1.43-.15-1.99-.44-.56-.3-.98-.71-1.28-1.25-.3-.53-.45-1.16-.45-1.89Z"></path>
        <path class="cls-1" d="M113.78,259.15h-1.21l3.24-6.81h1.25l3.24,6.81h-1.26l-.82-1.76h-3.63l-.8,1.76ZM116.41,253.44l-1.4,3.03h2.8l-1.4-3.03Z"></path>
        <path class="cls-1" d="M124.18,252.33h3.26c1.83,0,2.74.72,2.74,2.17,0,.74-.24,1.29-.71,1.65-.47.36-1.19.54-2.15.54h-1.99v2.46h-1.15v-6.81ZM128.99,254.48c0-.41-.13-.71-.39-.9-.26-.19-.68-.28-1.24-.28h-2.03v2.42h2.01c.57,0,.98-.1,1.25-.3s.4-.51.4-.94Z"></path>
        <path class="cls-1" d="M136.4,253.32h-2.77v-.99h6.69v.99h-2.77v5.82h-1.15v-5.82Z"></path>
        <path class="cls-1" d="M144.12,256.36v-4.03h1.15v4.08c0,.64.17,1.12.51,1.44s.86.47,1.55.47,1.23-.16,1.57-.47c.34-.31.51-.79.51-1.44v-4.08h1.15v4.03c0,1-.27,1.74-.81,2.23s-1.35.73-2.42.73-1.86-.24-2.4-.73-.81-1.23-.81-2.23Z"></path>
        <path class="cls-1" d="M155.12,252.33h3.25c1.81,0,2.71.69,2.71,2.08,0,.92-.44,1.53-1.32,1.84l1.7,2.89h-1.3l-1.54-2.66s-.1.01-.16.01h-2.23v2.65h-1.12v-6.81ZM159.91,254.4c0-.39-.13-.68-.38-.85-.25-.18-.67-.26-1.24-.26h-2.05v2.25h2.03c1.09,0,1.64-.38,1.64-1.14Z"></path>
        <path class="cls-1" d="M165.37,252.33h1.16v6.81h-1.16v-6.81Z"></path>
        <path class="cls-1" d="M171.17,252.33h1.09l4.32,5.22v-5.22h1.12v6.81h-1.09l-4.32-5.22v5.22h-1.12v-6.81Z"></path>
        <path class="cls-1" d="M181.98,255.77c0-.75.16-1.4.48-1.93.32-.54.76-.95,1.33-1.24.57-.29,1.23-.43,1.99-.43.85,0,1.54.18,2.08.53.54.35.92.84,1.12,1.48l-1.14.17c-.16-.4-.41-.7-.75-.9-.34-.2-.78-.3-1.33-.3-.83,0-1.46.23-1.91.7-.45.47-.67,1.1-.67,1.91s.24,1.47.72,1.91c.48.45,1.15.67,2.01.67s1.57-.15,2.15-.45v-1.4h-2.11v-.94h3.19v2.83c-.4.3-.88.53-1.45.7-.57.17-1.17.25-1.79.25-.81,0-1.5-.14-2.09-.43-.58-.28-1.03-.69-1.35-1.22-.31-.53-.47-1.17-.47-1.9Z"></path>
        <path class="cls-1" d="M198.64,255.74c0-.71.15-1.34.45-1.87.3-.53.73-.95,1.28-1.25.55-.3,1.21-.45,1.97-.45,1.82,0,2.94.76,3.36,2.28l-1.14.15c-.18-.51-.44-.88-.79-1.1s-.83-.34-1.43-.34c-.52,0-.96.1-1.33.32-.37.21-.66.51-.86.89-.2.38-.31.84-.31,1.38,0,.81.23,1.44.67,1.9.45.46,1.07.69,1.85.69.66,0,1.18-.12,1.54-.36.36-.24.6-.61.72-1.12h1.18c-.12.8-.48,1.41-1.08,1.83-.6.43-1.39.64-2.38.64-.77,0-1.43-.15-1.99-.44s-.98-.71-1.28-1.25c-.3-.53-.45-1.16-.45-1.89Z"></path>
        <path class="cls-1" d="M209.96,256.36v-4.03h1.15v4.08c0,.64.17,1.12.51,1.44.34.31.85.47,1.55.47s1.23-.16,1.57-.47.51-.79.51-1.44v-4.08h1.15v4.03c0,1-.27,1.74-.81,2.23-.54.49-1.35.73-2.41.73s-1.87-.24-2.41-.73c-.54-.49-.81-1.23-.81-2.23Z"></path>
        <path class="cls-1" d="M220.96,252.33h1.16v5.82h4.36l-.17.99h-5.35v-6.81Z"></path>
        <path class="cls-1" d="M231.43,253.32h-2.77v-.99h6.69v.99h-2.77v5.82h-1.16v-5.82Z"></path>
        <path class="cls-1" d="M239.15,256.36v-4.03h1.15v4.08c0,.64.17,1.12.51,1.44s.86.47,1.55.47,1.23-.16,1.57-.47c.34-.31.51-.79.51-1.44v-4.08h1.15v4.03c0,1-.27,1.74-.81,2.23-.54.49-1.35.73-2.42.73s-1.86-.24-2.4-.73c-.54-.49-.81-1.23-.81-2.23Z"></path>
        <path class="cls-1" d="M250.16,252.33h3.24c1.81,0,2.71.69,2.71,2.08,0,.92-.44,1.53-1.32,1.84l1.7,2.89h-1.3l-1.54-2.66s-.1.01-.16.01h-2.23v2.65h-1.12v-6.81ZM254.95,254.4c0-.39-.13-.68-.38-.85s-.67-.26-1.24-.26h-2.05v2.25h2.03c1.1,0,1.64-.38,1.64-1.14Z"></path>
        <path class="cls-1" d="M260.41,252.33h5.53v.95h-4.38v1.88h4.16v.95h-4.16v2.07h4.59l-.17.96h-5.56v-6.81Z"></path>
        <path class="cls-1" d="M277.86,253.32h-2.77v-.99h6.69v.99h-2.77v5.82h-1.16v-5.82Z"></path>
        <path class="cls-1" d="M291.02,256.15h-4.2v3h-1.15v-6.81h1.15v2.77h4.2v-2.77h1.15v6.81h-1.15v-3Z"></path>
        <path class="cls-1" d="M296.81,252.33h3.24c1.81,0,2.71.69,2.71,2.08,0,.92-.44,1.53-1.32,1.84l1.7,2.89h-1.3l-1.54-2.66s-.1.01-.16.01h-2.23v2.65h-1.12v-6.81ZM301.6,254.4c0-.39-.13-.68-.38-.85s-.67-.26-1.24-.26h-2.05v2.25h2.03c1.1,0,1.64-.38,1.64-1.14Z"></path>
        <path class="cls-1" d="M306.65,255.74c0-.73.16-1.36.48-1.9s.77-.95,1.35-1.24c.58-.29,1.26-.44,2.04-.44s1.47.15,2.05.44c.58.29,1.02.71,1.34,1.24.31.53.47,1.17.47,1.9s-.16,1.36-.48,1.9c-.32.54-.77.95-1.34,1.25-.58.29-1.26.44-2.05.44s-1.46-.15-2.04-.44c-.58-.29-1.03-.71-1.34-1.24-.31-.53-.47-1.17-.47-1.9ZM307.85,255.74c0,.81.23,1.45.7,1.9s1.12.68,1.96.68,1.49-.23,1.95-.69c.47-.46.7-1.09.7-1.9s-.23-1.45-.7-1.9-1.12-.68-1.96-.68-1.49.23-1.96.68c-.47.45-.71,1.09-.71,1.9Z"></path>
        <path class="cls-1" d="M318.58,256.36v-4.03h1.15v4.08c0,.64.17,1.12.51,1.44.34.31.86.47,1.55.47s1.23-.16,1.57-.47c.34-.31.51-.79.51-1.44v-4.08h1.15v4.03c0,1-.27,1.74-.81,2.23-.54.49-1.35.73-2.42.73s-1.86-.24-2.4-.73-.81-1.23-.81-2.23Z"></path>
        <path class="cls-1" d="M329.23,255.77c0-.75.16-1.4.48-1.93.32-.54.76-.95,1.33-1.24.57-.29,1.23-.43,1.99-.43.85,0,1.54.18,2.08.53.54.35.92.84,1.12,1.48l-1.14.17c-.16-.4-.41-.7-.75-.9-.34-.2-.78-.3-1.33-.3-.83,0-1.46.23-1.91.7-.45.47-.67,1.1-.67,1.91s.24,1.47.72,1.91,1.15.67,2.01.67,1.57-.15,2.15-.45v-1.4h-2.11v-.94h3.19v2.83c-.4.3-.88.53-1.45.7-.57.17-1.17.25-1.79.25-.81,0-1.5-.14-2.09-.43-.58-.28-1.03-.69-1.35-1.22-.31-.53-.47-1.17-.47-1.9Z"></path>
        <path class="cls-1" d="M346.08,256.15h-4.2v3h-1.15v-6.81h1.15v2.77h4.2v-2.77h1.15v6.81h-1.15v-3Z"></path>
        <path class="cls-1" d="M357.39,252.33h5.27v.96h-4.11v2h3.89v.96h-3.89v2.88h-1.16v-6.81Z"></path>
        <path class="cls-1" d="M366.37,255.74c0-.73.16-1.36.48-1.9s.77-.95,1.35-1.24c.58-.29,1.26-.44,2.04-.44s1.47.15,2.05.44,1.02.71,1.34,1.24c.31.53.47,1.17.47,1.9s-.16,1.36-.48,1.9c-.32.54-.77.95-1.34,1.25-.58.29-1.26.44-2.05.44s-1.46-.15-2.04-.44c-.58-.29-1.03-.71-1.34-1.24-.31-.53-.47-1.17-.47-1.9ZM367.57,255.74c0,.81.23,1.45.7,1.9s1.12.68,1.96.68,1.49-.23,1.95-.69c.47-.46.7-1.09.7-1.9s-.23-1.45-.7-1.9c-.46-.45-1.12-.68-1.96-.68s-1.49.23-1.96.68c-.47.45-.71,1.09-.71,1.9Z"></path>
        <path class="cls-1" d="M378.02,255.74c0-.73.16-1.36.48-1.9s.77-.95,1.35-1.24c.58-.29,1.26-.44,2.04-.44s1.47.15,2.05.44c.58.29,1.02.71,1.34,1.24.31.53.47,1.17.47,1.9s-.16,1.36-.48,1.9c-.32.54-.77.95-1.34,1.25-.58.29-1.26.44-2.05.44s-1.46-.15-2.04-.44c-.58-.29-1.03-.71-1.34-1.24-.31-.53-.47-1.17-.47-1.9ZM379.23,255.74c0,.81.23,1.45.7,1.9s1.12.68,1.96.68,1.49-.23,1.95-.69c.47-.46.7-1.09.7-1.9s-.23-1.45-.7-1.9c-.46-.45-1.12-.68-1.96-.68s-1.49.23-1.96.68c-.47.45-.71,1.09-.71,1.9Z"></path>
        <path class="cls-1" d="M390.03,252.33h2.95c1.26,0,2.22.29,2.89.88.67.59,1,1.43,1,2.53s-.36,1.94-1.07,2.52c-.71.59-1.73.88-3.05.88h-2.73v-6.81ZM395.68,255.74c0-1.62-.9-2.42-2.69-2.42h-1.8v4.85h1.61c.95,0,1.66-.2,2.15-.61.49-.41.73-1.01.73-1.81Z"></path>
      </g>
    </g>
    <g>
      <path class="cls-1" d="M104.66,133c4.8,0,8.44-.87,10.9-2.62,2.47-1.75,3.7-4.3,3.7-7.66,0-2.3-.7-4.23-2.11-5.79-1.41-1.56-3.45-2.67-6.12-3.32,4.49-1.13,6.74-3.84,6.74-8.13,0-3.05-1.14-5.35-3.42-6.89-2.28-1.54-5.65-2.31-10.11-2.31h-16.46v14.83c-.04.94-.35,1.87-1.19,2.29-.23.12-.97.41-.97.41,0,0,.73.28.97.39.84.41,1.15,1.34,1.19,2.28v16.52h16.87ZM91.19,99.21h12.81c3.53,0,6.13.51,7.79,1.54,1.66,1.03,2.49,2.66,2.49,4.89,0,4.46-3.24,6.69-9.72,6.69h-13.37v-13.12ZM91.19,115.26h13.73c3.53,0,6.22.63,8.05,1.9,1.83,1.27,2.75,3.12,2.75,5.56s-.91,4.35-2.73,5.55c-1.82,1.2-4.66,1.8-8.54,1.8h-13.27v-14.81Z"></path>
      <polygon class="cls-1" points="175.91 101.06 202.5 133 205.84 133 205.84 96.28 202.5 96.28 202.5 128.22 175.91 96.28 172.51 96.28 172.51 133 175.91 133 175.91 101.06"></polygon>
      <path class="cls-1" d="M251.62,133h3.81l-17.85-36.73h-3.55l-17.9,36.73h3.7l5.3-11.01h21.19l5.3,11.01ZM226.42,119.17l9.31-19.29,9.31,19.29h-18.62Z"></path>
      <polygon class="cls-1" points="294.83 129.97 266.69 129.97 294.26 99 294.26 96.28 262.78 96.28 262.78 99.31 289.94 99.31 262.32 130.28 262.32 133 294.11 133 294.83 129.97"></polygon>
      <rect class="cls-1" x="305.58" y="96.28" width="3.45" height="36.73"></rect>
      <polygon class="cls-1" points="363.29 106.67 365.97 106.67 368.85 96.28 365.4 96.28 363.29 106.67"></polygon>
      <path class="cls-1" d="M408.3,116.47c-1.99-1.7-5.13-2.84-9.41-3.42l-6.58-.93c-3.53-.51-6.05-1.29-7.56-2.31-1.51-1.03-2.26-2.54-2.26-4.53,0-2.23,1.07-3.94,3.21-5.12,2.14-1.18,5.17-1.77,9.08-1.77,3.5,0,6.21.52,8.13,1.57,1.92,1.05,3.36,2.79,4.32,5.22l3.24-.62c-1.06-3.26-2.82-5.61-5.27-7.05-2.45-1.44-5.92-2.16-10.42-2.16-4.9,0-8.75.87-11.55,2.62-2.8,1.75-4.19,4.22-4.19,7.41,0,2.88,1,5.1,3.01,6.66s5.34,2.67,10,3.32l5.86.82c3.53.45,6.06,1.24,7.59,2.39,1.53,1.15,2.29,2.77,2.29,4.86,0,2.44-1.04,4.29-3.11,5.56s-5.12,1.9-9.13,1.9c-8.23,0-12.89-2.57-13.99-7.72h-3.5c.96,7.17,6.79,10.75,17.49,10.75,5.04,0,8.92-.91,11.65-2.73,2.73-1.82,4.09-4.41,4.09-7.77,0-2.95-1-5.27-2.98-6.97Z"></path>
      <path class="cls-1" d="M35.2,163.14c-2.35-1.88-5.77-2.83-10.26-2.83H7.86v18.09c-.06.91-.38,1.78-1.18,2.18-.23.12-.97.41-.97.41,0,0,.73.28.97.39.81.4,1.12,1.28,1.18,2.18v13.47h3.45v-14.56h13.01c9.6,0,14.4-3.72,14.4-11.16,0-3.57-1.17-6.29-3.52-8.18ZM24.47,179.5h-13.17v-16.15h13.32c7,0,10.49,2.64,10.49,7.92s-3.55,8.23-10.65,8.23Z"></path>
      <polygon class="cls-1" points="80.49 176.41 54.1 176.41 54.1 160.31 50.65 160.31 50.65 197.04 54.1 197.04 54.1 179.6 80.49 179.6 80.49 197.04 83.88 197.04 83.88 160.31 80.49 160.31 80.49 176.41"></polygon>
      <path class="cls-1" d="M127.01,161.75c-3-1.58-6.54-2.37-10.62-2.37s-7.57.79-10.57,2.37c-3,1.58-5.32,3.81-6.97,6.69-1.65,2.88-2.47,6.29-2.47,10.24s.82,7.36,2.47,10.24c1.65,2.88,3.97,5.11,6.97,6.69s6.52,2.37,10.57,2.37,7.62-.79,10.62-2.37c3-1.58,5.32-3.81,6.97-6.69,1.65-2.88,2.47-6.29,2.47-10.24s-.82-7.36-2.47-10.24c-1.65-2.88-3.97-5.11-6.97-6.69ZM130.87,187.37c-1.32,2.43-3.21,4.29-5.68,5.58-2.47,1.29-5.4,1.93-8.8,1.93s-6.33-.64-8.8-1.93c-2.47-1.29-4.36-3.15-5.68-5.58-1.32-2.44-1.98-5.33-1.98-8.69s.67-6.3,2.01-8.72c1.34-2.42,3.23-4.27,5.68-5.56,2.45-1.29,5.38-1.93,8.77-1.93s6.37.64,8.82,1.93c2.45,1.29,4.34,3.14,5.66,5.56,1.32,2.42,1.98,5.32,1.98,8.72s-.66,6.26-1.98,8.69Z"></path>
      <polygon class="cls-1" points="142.62 163.35 158.31 163.35 158.31 197.04 161.76 197.04 161.76 163.35 177.45 163.35 177.45 160.31 142.62 160.31 142.62 163.35"></polygon>
      <path class="cls-1" d="M214.25,161.75c-3-1.58-6.54-2.37-10.62-2.37s-7.57.79-10.57,2.37c-3,1.58-5.32,3.81-6.97,6.69-1.65,2.88-2.47,6.29-2.47,10.24s.82,7.36,2.47,10.24c1.65,2.88,3.97,5.11,6.97,6.69,3,1.58,6.52,2.37,10.57,2.37s7.62-.79,10.62-2.37c3-1.58,5.32-3.81,6.97-6.69,1.65-2.88,2.47-6.29,2.47-10.24s-.82-7.36-2.47-10.24c-1.65-2.88-3.97-5.11-6.97-6.69ZM218.11,187.37c-1.32,2.43-3.21,4.29-5.68,5.58-2.47,1.29-5.4,1.93-8.8,1.93s-6.33-.64-8.8-1.93c-2.47-1.29-4.36-3.15-5.68-5.58-1.32-2.44-1.98-5.33-1.98-8.69s.67-6.3,2.01-8.72c1.34-2.42,3.23-4.27,5.68-5.56s5.38-1.93,8.77-1.93,6.37.64,8.82,1.93c2.45,1.29,4.34,3.14,5.66,5.56,1.32,2.42,1.98,5.32,1.98,8.72s-.66,6.26-1.98,8.69Z"></path>
      <path class="cls-1" d="M254.91,181.81h12.81v9.72c-1.68,1.03-3.64,1.84-5.86,2.44s-4.65.9-7.25.9c-5.18,0-9.28-1.38-12.29-4.14-3.02-2.76-4.53-6.75-4.53-11.96,0-3.36.63-6.26,1.9-8.69,1.27-2.43,3.1-4.31,5.5-5.63,2.4-1.32,5.28-1.98,8.64-1.98s5.97.65,8.15,1.95c2.18,1.3,3.75,3.26,4.71,5.86l3.34-.67c-1.1-3.29-3.02-5.82-5.76-7.59-2.74-1.77-6.19-2.65-10.34-2.65s-7.45.8-10.42,2.39c-2.97,1.59-5.26,3.84-6.87,6.74-1.61,2.9-2.42,6.34-2.42,10.31s.84,7.6,2.52,10.44c1.68,2.85,4.05,5.01,7.1,6.48,3.05,1.47,6.62,2.21,10.7,2.21,3.05,0,6.03-.44,8.92-1.31,2.9-.87,5.39-2.12,7.48-3.73v-14.09h-16.05v2.98Z"></path>
      <path class="cls-1" d="M312.27,177.11c1.3-1.66,1.95-3.76,1.95-6.3,0-3.39-1.13-5.99-3.4-7.79-2.26-1.8-5.68-2.7-10.24-2.7h-16.87v16.79c-.04.94-.35,1.86-1.19,2.28-.23.12-.97.41-.97.41,0,0,.73.28.97.39.84.41,1.15,1.34,1.19,2.28v14.58h3.4v-15.74h14.53c.43,0,.83-.03,1.21-.1l9.1,15.84h3.91l-9.57-16.46c2.67-.65,4.66-1.81,5.97-3.47ZM300.18,178.26h-13.07v-14.92h13.22c3.57,0,6.17.62,7.82,1.85,1.65,1.23,2.47,3.09,2.47,5.55,0,5.01-3.48,7.51-10.44,7.51Z"></path>
      <path class="cls-1" d="M340.56,160.31l-17.9,36.73h3.7l5.3-11.01h21.19l5.3,11.01h3.81l-17.85-36.73h-3.55ZM332.94,183.2l9.31-19.29,9.31,19.29h-18.62Z"></path>
      <path class="cls-1" d="M399.58,163.14c-2.35-1.88-5.77-2.83-10.26-2.83h-17.08v17.97c-.04.95-.35,1.88-1.19,2.3-.23.12-.97.41-.97.41,0,0,.73.28.97.39.84.42,1.15,1.35,1.19,2.3v13.35h3.45v-14.56h13.01c9.6,0,14.4-3.72,14.4-11.16,0-3.57-1.17-6.29-3.52-8.18ZM388.86,179.5h-13.17v-16.15h13.32c7,0,10.49,2.64,10.49,7.92s-3.55,8.23-10.65,8.23Z"></path>
      <polygon class="cls-1" points="444.87 176.41 418.48 176.41 418.48 160.31 415.04 160.31 415.04 197.04 418.48 197.04 418.48 179.6 444.87 179.6 444.87 197.04 448.27 197.04 448.27 160.31 444.87 160.31 444.87 176.41"></polygon>
      <polygon class="cls-1" points="489.32 160.31 476.04 178.42 462.77 160.31 458.56 160.31 474.24 181.4 474.24 197.04 477.69 197.04 477.69 181.35 493.33 160.31 489.32 160.31"></polygon>
      <path class="cls-1" d="M131.41,116.92h0v16.08h28.6l.67-3.03h-25.82v-14.4h23.82v-3.04h-23.82v-13.22h25.05v-3.03h-28.5v14.4h0c.04,1.08-.23,2.24-1.19,2.72-.23.12-.97.41-.97.41,0,0,.73.28.97.39.97.48,1.23,1.64,1.19,2.72Z"></path>
      <path class="cls-1" d="M323.43,118.41v14.59h3.4v-15.74h14.53c.43,0,.83-.03,1.21-.1l9.1,15.84h3.91l-9.57-16.46c2.67-.65,4.66-1.81,5.97-3.47,1.3-1.66,1.95-3.76,1.95-6.3,0-3.39-1.13-5.99-3.4-7.79-2.26-1.8-5.68-2.7-10.24-2.7h-16.87v16.81c-.05.93-.36,1.85-1.19,2.26-.23.12-.97.41-.97.41,0,0,.73.28.97.39.83.41,1.14,1.33,1.19,2.26ZM326.82,99.31h13.22c3.57,0,6.17.62,7.82,1.85,1.65,1.23,2.47,3.09,2.47,5.55,0,5.01-3.48,7.51-10.44,7.51h-13.07v-14.92Z"></path>
    </g>
  </g>
  <path class="cls-1" d="M274.24,43.26l-1-1.37-.29-.35-.02.03c-2-2.29-4.8-4.09-8-5.15,3.2-1.06,6-2.86,8-5.15l.04.06,1.14-1.56.12-.2h0c1.39-2.17,2.12-4.58,2.12-7.02,0-8.26-8.18-14.97-18.25-14.97h-32.18v25.74c-.03.89-.28,2.05-1.28,2.55-.27.14-1.15.48-1.16.49l-.77.31.78.3c.25.09.93.36,1.15.47.99.49,1.24,1.65,1.27,2.53v25.33h32.18c10.06,0,18.25-6.72,18.25-14.97,0-2.43-.73-4.85-2.12-7l.02-.03ZM271.54,43.49c-.09.11-.19.23-.29.34-.08.1-.17.19-.28.31-.09.1-.19.2-.28.29-.09.09-.19.18-.28.27-.11.1-.21.2-.33.3-.1.08-.19.17-.29.25-.11.1-.23.19-.34.28-.1.08-.21.16-.31.23-.12.09-.24.17-.36.26-.11.07-.21.15-.32.21-.13.08-.25.16-.38.24-.11.07-.22.13-.33.19-.13.07-.26.15-.4.22-.11.06-.22.12-.34.17-.14.07-.27.13-.42.2-.11.05-.23.1-.34.15-.14.06-.29.12-.5.2-.09.04-.19.07-.28.11-.14.05-.28.09-.45.15l-.36.11c-.15.04-.31.08-.47.13l-.09.02c-.09.02-.17.05-.26.07-.14.03-.28.06-.49.1l-.11.02c-.08.02-.16.03-.24.05-.14.02-.29.04-.43.06l-.42.06c-.18.02-.36.03-.58.05l-.29.02c-.29.02-.59.03-.88.03h-32.54v-11.07h30.23c5.42,0,10.61,2.21,13.62,5.78-.05.07-.11.13-.16.2ZM227.86,50.77h32.54c.33,0,.66-.01.98-.03l.36-.03c.2-.02.41-.03.61-.05.08-.01.17-.02.25-.03l.19-.03c.17-.02.34-.05.51-.08l.46-.09c.16-.03.32-.06.48-.1.11-.03.22-.05.4-.1.18-.05.35-.09.53-.14.12-.04.25-.08.39-.12.17-.05.34-.11.51-.17.13-.05.26-.1.39-.15.17-.06.33-.13.49-.2.13-.05.26-.11.39-.17.16-.07.32-.15.47-.22.13-.06.25-.13.37-.19.15-.08.3-.16.46-.25.12-.07.24-.14.37-.21.15-.09.29-.18.43-.27.12-.08.24-.15.36-.24.14-.1.28-.2.46-.33.1-.07.2-.15.29-.22.14-.11.27-.22.43-.35.1-.08.2-.16.29-.25.12-.11.24-.22.38-.35l.08-.08c.07-.07.15-.14.22-.21.11-.11.22-.22.36-.38l.08-.08c.07-.07.14-.14.2-.22.09-.1.18-.2.26-.31l.07-.08c.96,1.65,1.46,3.46,1.46,5.26,0,7.05-7.31,12.78-16.3,12.78h-30.23v-12.3ZM258.09,35.32h-30.23v-11.07h32.54c.29,0,.59,0,.88.03l.36.03c.17.01.34.03.51.05l.42.06c.14.02.29.04.43.06.08.01.16.03.24.05l.14.03c.15.03.31.06.46.09.09.02.17.04.26.07l.18.05c.13.03.26.07.39.1l.39.12c.14.04.28.09.41.14l.35.13c.14.06.29.11.43.17l.35.16c.14.06.28.13.41.19l.34.18c.13.07.27.14.4.22.11.06.22.13.33.2.13.08.25.16.38.24.11.07.21.14.32.21.12.08.24.17.36.26.1.08.21.15.31.23.12.09.23.19.34.28.1.08.2.17.29.25.11.1.22.2.33.3.09.09.19.18.28.27.1.1.21.21.31.32.09.09.18.19.26.28.1.11.19.23.29.34.05.06.11.13.16.19-3.01,3.57-8.19,5.78-13.62,5.78ZM272.04,29.44s0,0,0,0l-.02.03h-.01s.03-.03.03-.03ZM271.95,26.73c-.08-.08-.15-.15-.23-.22l-.07-.06c-.13-.12-.25-.24-.38-.35-.1-.08-.19-.17-.32-.27-.13-.11-.26-.22-.4-.33-.1-.08-.2-.15-.34-.25-.14-.1-.28-.2-.42-.3-.12-.08-.24-.16-.35-.23-.14-.09-.29-.18-.43-.27-.12-.07-.24-.14-.37-.21-.15-.08-.3-.17-.45-.25-.12-.07-.25-.13-.38-.19-.16-.08-.31-.15-.47-.22-.13-.06-.25-.12-.38-.17-.16-.07-.33-.13-.49-.2-.13-.05-.26-.1-.39-.15-.17-.06-.34-.12-.53-.18l-.37-.12c-.17-.05-.35-.1-.53-.14l-.4-.1c-.16-.04-.32-.07-.55-.11l-.39-.08c-.17-.03-.34-.05-.58-.09l-.37-.05c-.22-.02-.43-.04-.65-.06l-.32-.03c-.33-.02-.65-.03-.98-.03h-32.54v-12.3h30.23c8.99,0,16.3,5.73,16.3,12.78,0,1.8-.5,3.61-1.46,5.26l-.06-.07c-.09-.11-.18-.22-.27-.32-.07-.08-.14-.15-.21-.23l-.07-.07c-.12-.13-.24-.26-.36-.38Z"></path>
</svg>